<svg xmlns="http://www.w3.org/2000/svg" viewBox="0 0 137 137" enable-background="new 0 0 137 137" height="150" width="150" class="db mbs mhc">
  <path fill="#ffffff" d="M68.5 0C30.7 0 0 30.7 0 68.5S30.7 137 68.5 137 137 106.3 137 68.5 106.3 0 68.5 0zM53.9 43.4v8.2c0 6.8-4.9 6.3-4.9 14.7v11.4c0 4.4 1.6 7.4 1.6 13.1V99c0 2.7-2.2 4.9-4.9 4.9s-4.9-2.2-4.9-4.9v-8.2s1.6-8.7 1.6-13.1V66.3c0-8.4-4.9-7.9-4.9-14.7V36.9c0-.9.7-1.6 1.6-1.6.9 0 1.6.7 1.6 1.6v9.7c0 .9.7 1.6 1.6 1.6.9 0 1.6-.7 1.6-1.6v-9.8c0-.9.7-1.6 1.6-1.6.9 0 1.6.7 1.6 1.6v9.8c0 .9.7 1.6 1.6 1.6.9 0 1.6-.7 1.6-1.6v-9.7c0-.9.7-1.6 1.6-1.6.9 0 1.6.7 1.6 1.6v6.5zm20.3 62.7c0 2.7-2.2 4.9-4.9 4.9s-4.9-2.2-4.9-4.9v-8.2s1.6-8.7 1.6-13V67c0-5.7-3.3-8.2-3.3-16.3 0-18 4.8-24 6.5-24.5s3.3.2 3.3 3.3V85c0 4.4 1.6 7.4 1.6 13.1s.1 8 .1 8zm21.9-15.4v8.2c0 2.7-2.2 4.9-4.9 4.9s-4.9-2.2-4.9-4.9v-8.2S88 82 88 77.6V64.5c0-8.4-4.9-7.9-4.9-14.7 0-4.5 1.3-14.7 8.2-14.7 6.9 0 8.2 10.2 8.2 14.7 0 6.8-4.9 6.3-4.9 14.7v13.1c-.1 4.4 1.5 7.5 1.5 13.1z"/>
</svg>
