<svg xmlns="http://www.w3.org/2000/svg" viewBox="0 0 452.6 61.6" enable-background="new 0 0 452.6 61.6"><g fill="#30323f"><path d="M61.4 24.8H38.6L58.8 4.6v13.6h2.7V.1H43.3v2.6h13.6L36.7 22.9V0h-2.6v27.5h27.3zM0 36.8h23L2.8 57V43.4H.1v18.2h18.2v-2.7H4.7l20.2-20.2v22.8h2.6V34.2H0zM24.9 22.9L4.7 2.7h13.6V.1H.1v18.1h2.7V4.6L23 24.8H0v2.7h27.5V0h-2.6zM58.8 43.4V57L38.6 36.8h22.8v-2.6H34.1v27.3h2.6V38.7l20.2 20.2H43.3v2.7h18.2V43.4zM83.1 40c-2.2 0-3.5-.1-5.8-.3V21.1c2.2-.2 3.7-.3 5.6-.3 7.9 0 11.5 4.1 11.5 9.5.1 5.5-3.4 9.7-11.3 9.7zm.4-15.3c-.8 0-1.1 0-1.8.1V36c.8.1 1.1.1 2.1.1 4.1 0 6-2.3 6-5.9 0-3.4-2.2-5.5-6.3-5.5zM103.3 39.9v-19h4.4v19h-4.4zM122.4 40.2c-2.1 0-4.7-.9-6.4-1.9l1.2-4c1.5 1.1 3.5 1.8 5.3 1.8 1.6 0 2.1-.7 2.1-1.7s-.5-1.7-3.4-2.8c-3.3-1.3-4.5-3.3-4.5-5.6 0-2.8 2.3-5.5 6.7-5.5 2.1 0 4.2.7 5.3 1.5l-1.1 3.9c-1.1-.8-2.8-1.6-4.2-1.6-1.6 0-2.3.8-2.3 1.5 0 1.2 1 1.7 3.3 2.7 3.5 1.5 4.6 3.2 4.6 5.6.2 3.2-2 6.1-6.6 6.1zM146.4 25v14.9H142V25h-5.7v-4h15.8v4h-5.7zM169.9 39.9l-3.2-6.2h-.8c-.6 0-1 0-1.6-.1v6.2h-4.4V21.1c1.6-.2 3.4-.3 5.6-.3 5.9 0 8.2 2.8 8.2 6.3 0 2.3-1.2 4.3-3.3 5.5l4.5 7.3h-5zM166 24.7c-.7 0-1.1 0-1.7.1V30c.6.1.9.1 1.4.1 2.1 0 3.4-1 3.4-2.9.1-1.6-1.2-2.5-3.1-2.5zM182.8 39.9v-19h4.4v19h-4.4zM202.4 40.1c-1.7 0-3.8-.2-5.7-.4V21.1c1.4-.2 3.8-.4 5.3-.4 5.5 0 8.3 2.5 8.3 5.1 0 2-1.1 3.3-3.3 4.2 2.6.8 3.8 2.3 3.8 4.5.1 3-2.7 5.6-8.4 5.6zm.6-15.5c-.8 0-1.4.1-2 .2v4c.5.1.8.1 1.6.1 2.1 0 3.2-.8 3.2-2.1.1-1.3-.9-2.2-2.8-2.2zm-.3 7.2c-.7 0-1.2 0-1.7.1v4.4c.6.1 1 .1 1.8.1 2.2 0 3.3-.9 3.3-2.3.1-1.5-1.1-2.3-3.4-2.3zM227.3 40.2c-5.1 0-7.9-2.7-7.9-8V20.9h4.4v11c0 2.7 1.1 4.3 3.7 4.3 2.5 0 3.6-1.6 3.6-4.3v-11h4.4v11.3c-.1 5.3-3.1 8-8.2 8zM253.2 25v14.9h-4.4V25h-5.7v-4h15.8v4h-5.7zM266.8 39.9v-19h12v4h-7.6v3.4h6.9v3.8h-6.9v3.7h7.6v4h-12zM293.8 40c-2.2 0-3.5-.1-5.8-.3V21.1c2.2-.2 3.7-.3 5.6-.3 7.9 0 11.5 4.1 11.5 9.5.1 5.5-3.4 9.7-11.3 9.7zm.5-15.3c-.8 0-1.1 0-1.8.1V36c.8.1 1.1.1 2.1.1 4.1 0 6-2.3 6-5.9-.1-3.4-2.3-5.5-6.3-5.5z"/><g stroke="#231F20" stroke-miterlimit="10"><path d="M325.1 39.7c-5.6 0-9.6-3.9-9.6-9.4 0-5.4 4.1-9.4 9.6-9.4 2.4 0 4.6.8 6 1.7l-.8 1.7c-1.5-.9-3.6-1.6-5.4-1.6-4.6 0-7.3 3.2-7.3 7.5s2.9 7.5 7.5 7.5c1.7 0 3.8-.7 5.4-1.6l.6 1.7c-1.5 1-3.6 1.9-6 1.9zM352.8 39.4v-8.3h-9.7v8.3h-2V21.2h2v8.1h9.7v-8.1h2v18.2h-2zM373.1 39.7c-4.2 0-6.8-2.5-6.8-6.8V21.2h2v11.5c0 3.6 2 5.2 4.8 5.2s4.9-1.6 4.9-5.2V21.2h2v11.7c0 4.2-2.8 6.8-6.9 6.8zM401.6 39.4l-4.8-7.2h-3.3v7.2h-2v-18c1.3-.2 2.7-.3 4.2-.3 4.7 0 7 2.3 7 5.5 0 2.5-1.4 4.4-4 5.3l5.3 7.6h-2.4zM396 22.9c-.8 0-1.9 0-2.5.2v7.4c.6.1 1.5.1 2.2.1 3.4 0 4.9-1.6 4.9-3.9 0-2.2-1.6-3.8-4.6-3.8zM422.3 39.7c-5.6 0-9.6-3.9-9.6-9.4 0-5.4 4.1-9.4 9.6-9.4 2.4 0 4.6.8 6 1.7l-.8 1.7c-1.5-.9-3.6-1.6-5.4-1.6-4.6 0-7.3 3.2-7.3 7.5s2.9 7.5 7.5 7.5c1.7 0 3.8-.7 5.4-1.6l.6 1.7c-1.4 1-3.5 1.9-6 1.9zM450.1 39.4v-8.3h-9.7v8.3h-2V21.2h2v8.1h9.7v-8.1h2v18.2h-2z"/></g></g></svg>
