<?xml version="1.0" encoding="utf-8"?>
<!-- Generator: Adobe Illustrator 18.0.0, SVG Export Plug-In . SVG Version: 6.00 Build 0)  -->
<!DOCTYPE svg PUBLIC "-//W3C//DTD SVG 1.1//EN" "http://www.w3.org/Graphics/SVG/1.1/DTD/svg11.dtd">
<svg version="1.1" id="Layer_1" xmlns="http://www.w3.org/2000/svg" xmlns:xlink="http://www.w3.org/1999/xlink" x="0px" y="0px"
	 viewBox="0 0 830.4 361.3" enable-background="new 0 0 830.4 361.3" xml:space="preserve">
<g>
	<polygon fill="#73C4B0" points="776.1,176.5 396.1,176.5 396.1,45.3 391.1,45.3 391.1,176.5 47,176.5 47,181.5 391.1,181.5 
		391.1,312.7 396.1,312.7 396.1,181.5 776.1,181.5 	"/>
	<g>
		<path fill="#30323F" d="M114.4,116.6c0,2.4-0.7,4.3-2,5.6c-1.3,1.3-3.2,1.9-5.5,1.9c-2.4,0-4.2-0.6-5.5-1.9
			c-1.3-1.2-1.9-3.1-1.9-5.6v-10.4h4.1v10.2c0,1.2,0.3,2.2,0.8,2.9s1.4,1.1,2.6,1.1c1.2,0,2-0.4,2.5-1.1s0.8-1.7,0.8-2.9v-10.2h4.1
			V116.6z"/>
		<path fill="#30323F" d="M131.9,118.6c0,0.7-0.1,1.4-0.4,2c-0.3,0.7-0.6,1.2-1.2,1.8c-0.5,0.5-1.2,0.9-2,1.2
			c-0.8,0.3-1.7,0.5-2.8,0.5c-0.5,0-1,0-1.5-0.1s-1.1-0.2-1.6-0.4c-0.5-0.2-1-0.3-1.5-0.6c-0.5-0.2-0.9-0.5-1.3-0.7l1.1-3.7
			c0.7,0.5,1.5,0.9,2.4,1.2s1.7,0.5,2.5,0.5c0.7,0,1.2-0.1,1.5-0.4c0.3-0.3,0.5-0.7,0.5-1.1c0-0.2,0-0.4-0.1-0.6
			c-0.1-0.2-0.2-0.4-0.5-0.6c-0.2-0.2-0.6-0.4-1-0.6c-0.4-0.2-0.9-0.5-1.6-0.7c-0.8-0.3-1.4-0.7-2-1c-0.5-0.4-1-0.8-1.3-1.2
			c-0.3-0.4-0.6-0.9-0.7-1.4c-0.1-0.5-0.2-1-0.2-1.5c0-0.6,0.1-1.3,0.4-1.9c0.3-0.6,0.7-1.1,1.2-1.6c0.5-0.5,1.2-0.9,1.9-1.1
			c0.8-0.3,1.7-0.4,2.7-0.4c0.5,0,1,0,1.4,0.1c0.5,0.1,0.9,0.2,1.4,0.3c0.4,0.1,0.8,0.3,1.2,0.4c0.4,0.2,0.7,0.3,0.9,0.5l-1,3.6
			c-0.3-0.2-0.5-0.3-0.9-0.5c-0.3-0.2-0.7-0.3-1-0.5c-0.3-0.1-0.7-0.2-1-0.3s-0.7-0.1-1-0.1c-0.8,0-1.3,0.1-1.6,0.4s-0.5,0.6-0.5,1
			c0,0.3,0.1,0.5,0.2,0.7c0.1,0.2,0.3,0.4,0.6,0.6c0.3,0.2,0.6,0.4,1,0.5c0.4,0.2,0.9,0.4,1.4,0.6c0.8,0.4,1.5,0.7,2.1,1.1
			c0.6,0.4,1,0.8,1.3,1.2c0.3,0.4,0.6,0.9,0.7,1.4C131.9,117.5,131.9,118,131.9,118.6z"/>
		<path fill="#30323F" d="M149.8,109.9v3.9h6v3.6h-6v6.4h-4.1v-17.6h11.1v3.7H149.8z"/>
		<path fill="#30323F" d="M179.8,115c0,1.3-0.2,2.5-0.7,3.6c-0.4,1.1-1.1,2.1-1.9,2.9c-0.8,0.8-1.8,1.4-2.9,1.9
			c-1.1,0.5-2.3,0.7-3.7,0.7c-1.4,0-2.6-0.2-3.7-0.7c-1.1-0.5-2-1.1-2.8-1.9c-0.8-0.8-1.4-1.8-1.8-2.9s-0.6-2.3-0.6-3.6
			c0-1.3,0.2-2.5,0.7-3.6c0.4-1.1,1.1-2.1,1.8-2.9s1.7-1.4,2.9-1.9c1.1-0.5,2.4-0.7,3.7-0.7c1.4,0,2.6,0.2,3.7,0.7
			c1.1,0.5,2,1.1,2.8,1.9c0.8,0.8,1.4,1.8,1.8,2.9C179.6,112.5,179.8,113.7,179.8,115z M175.5,115c0-0.8-0.1-1.5-0.3-2.2
			c-0.2-0.7-0.5-1.2-0.9-1.7c-0.4-0.5-0.9-0.9-1.5-1.1c-0.6-0.3-1.2-0.4-1.9-0.4c-0.7,0-1.3,0.1-1.9,0.4c-0.6,0.3-1.1,0.6-1.5,1.1
			c-0.4,0.5-0.7,1.1-0.9,1.7c-0.2,0.7-0.3,1.4-0.3,2.2c0,0.8,0.1,1.5,0.3,2.2c0.2,0.7,0.5,1.2,0.9,1.7c0.4,0.5,0.9,0.9,1.5,1.1
			c0.6,0.3,1.2,0.4,1.9,0.4c0.7,0,1.3-0.1,1.9-0.4c0.6-0.3,1.1-0.7,1.5-1.1c0.4-0.5,0.7-1.1,0.9-1.7
			C175.4,116.5,175.5,115.8,175.5,115z"/>
		<path fill="#30323F" d="M195.4,123.8l-3-5.7c-0.1,0-0.2,0-0.3,0s-0.2,0-0.3,0c-0.3,0-0.6,0-0.8,0c-0.2,0-0.5,0-0.7,0v5.8h-4.1
			v-17.4c0.8-0.1,1.5-0.1,2.4-0.2s1.8-0.1,2.8-0.1c1.4,0,2.5,0.2,3.5,0.5c1,0.3,1.7,0.7,2.4,1.2c0.6,0.5,1.1,1.1,1.3,1.9
			s0.4,1.5,0.4,2.3c0,1.1-0.3,2-0.8,2.9c-0.5,0.9-1.3,1.6-2.2,2.2l4.1,6.8H195.4z M194.7,112c0-0.7-0.3-1.3-0.8-1.7
			c-0.5-0.4-1.2-0.6-2.1-0.6c-0.3,0-0.6,0-0.8,0c-0.2,0-0.5,0-0.8,0.1v4.8c0.3,0,0.5,0.1,0.7,0.1c0.2,0,0.4,0,0.6,0
			c1,0,1.8-0.2,2.3-0.7S194.7,112.9,194.7,112z"/>
		<path fill="#30323F" d="M227.8,116.6c0,2.4-0.7,4.3-2,5.6c-1.3,1.3-3.2,1.9-5.5,1.9c-2.4,0-4.2-0.6-5.5-1.9
			c-1.3-1.2-1.9-3.1-1.9-5.6v-10.4h4.1v10.2c0,1.2,0.3,2.2,0.8,2.9s1.4,1.1,2.6,1.1c1.2,0,2-0.4,2.5-1.1s0.8-1.7,0.8-2.9v-10.2h4.1
			V116.6z"/>
		<path fill="#30323F" d="M245.3,118.6c0,0.7-0.1,1.4-0.4,2c-0.3,0.7-0.6,1.2-1.2,1.8c-0.5,0.5-1.2,0.9-2,1.2
			c-0.8,0.3-1.7,0.5-2.8,0.5c-0.5,0-1,0-1.5-0.1s-1.1-0.2-1.6-0.4c-0.5-0.2-1-0.3-1.5-0.6c-0.5-0.2-0.9-0.5-1.3-0.7l1.1-3.7
			c0.7,0.5,1.5,0.9,2.4,1.2s1.7,0.5,2.5,0.5c0.7,0,1.2-0.1,1.5-0.4c0.3-0.3,0.5-0.7,0.5-1.1c0-0.2,0-0.4-0.1-0.6
			c-0.1-0.2-0.2-0.4-0.5-0.6c-0.2-0.2-0.6-0.4-1-0.6c-0.4-0.2-0.9-0.5-1.6-0.7c-0.8-0.3-1.4-0.7-2-1c-0.5-0.4-1-0.8-1.3-1.2
			c-0.3-0.4-0.6-0.9-0.7-1.4c-0.1-0.5-0.2-1-0.2-1.5c0-0.6,0.1-1.3,0.4-1.9c0.3-0.6,0.7-1.1,1.2-1.6c0.5-0.5,1.2-0.9,1.9-1.1
			c0.8-0.3,1.7-0.4,2.7-0.4c0.5,0,1,0,1.4,0.1c0.5,0.1,0.9,0.2,1.4,0.3c0.4,0.1,0.8,0.3,1.2,0.4c0.4,0.2,0.7,0.3,0.9,0.5l-1,3.6
			c-0.3-0.2-0.5-0.3-0.9-0.5c-0.3-0.2-0.7-0.3-1-0.5c-0.3-0.1-0.7-0.2-1-0.3s-0.7-0.1-1-0.1c-0.8,0-1.3,0.1-1.6,0.4s-0.5,0.6-0.5,1
			c0,0.3,0.1,0.5,0.2,0.7c0.1,0.2,0.3,0.4,0.6,0.6c0.3,0.2,0.6,0.4,1,0.5c0.4,0.2,0.9,0.4,1.4,0.6c0.8,0.4,1.5,0.7,2.1,1.1
			c0.6,0.4,1,0.8,1.3,1.2c0.3,0.4,0.6,0.9,0.7,1.4C245.2,117.5,245.3,118,245.3,118.6z"/>
		<path fill="#30323F" d="M254.4,122.5c0,0.4-0.1,0.9-0.3,1.3s-0.4,0.9-0.7,1.3c-0.3,0.4-0.6,0.8-1,1.1s-0.8,0.6-1.3,0.8l-0.3-0.5
			c0.5-0.4,0.9-0.9,1.2-1.2c0.3-0.4,0.5-0.8,0.6-1.4c-0.6,0-1.1-0.2-1.4-0.6c-0.3-0.4-0.5-0.8-0.5-1.3c0-0.5,0.2-0.9,0.5-1.3
			c0.3-0.4,0.8-0.5,1.3-0.5c0.7,0,1.2,0.2,1.5,0.7C254.2,121.4,254.4,121.9,254.4,122.5z"/>
		<path fill="#30323F" d="M279.5,123.8v-7.1h-6.8v7.1h-4.1v-17.6h4.1v6.9h6.8v-6.9h4.1v17.6H279.5z"/>
		<path fill="#30323F" d="M290.4,123.8v-17.6h11.1v3.7h-7.1v3.1h6.4v3.6h-6.4v3.4h7.1v3.7H290.4z"/>
		<path fill="#30323F" d="M317.5,123.8l-3-5.7c-0.1,0-0.2,0-0.3,0s-0.2,0-0.3,0c-0.3,0-0.6,0-0.8,0c-0.2,0-0.5,0-0.7,0v5.8h-4.1
			v-17.4c0.8-0.1,1.5-0.1,2.4-0.2s1.8-0.1,2.8-0.1c1.4,0,2.5,0.2,3.5,0.5c1,0.3,1.7,0.7,2.4,1.2c0.6,0.5,1.1,1.1,1.3,1.9
			s0.4,1.5,0.4,2.3c0,1.1-0.3,2-0.8,2.9c-0.5,0.9-1.3,1.6-2.2,2.2l4.1,6.8H317.5z M316.7,112c0-0.7-0.3-1.3-0.8-1.7
			c-0.5-0.4-1.2-0.6-2.1-0.6c-0.3,0-0.6,0-0.8,0c-0.2,0-0.5,0-0.8,0.1v4.8c0.3,0,0.5,0.1,0.7,0.1c0.2,0,0.4,0,0.6,0
			c1,0,1.8-0.2,2.3-0.7S316.7,112.9,316.7,112z"/>
		<path fill="#30323F" d="M327.3,123.8v-17.6h11.1v3.7h-7.1v3.1h6.4v3.6h-6.4v3.4h7.1v3.7H327.3z"/>
	</g>
	<g>
		<path fill="#30323F" d="M76.9,252.9v7h-4.1v-7l-6.2-10.6h4.7l3.6,6.7l3.6-6.7h4.6L76.9,252.9z"/>
		<path fill="#30323F" d="M105.7,251.1c0,1.3-0.2,2.5-0.7,3.6c-0.4,1.1-1.1,2.1-1.9,2.9c-0.8,0.8-1.8,1.4-2.9,1.9
			c-1.1,0.5-2.3,0.7-3.7,0.7c-1.4,0-2.6-0.2-3.7-0.7c-1.1-0.5-2-1.1-2.8-1.9c-0.8-0.8-1.4-1.8-1.8-2.9c-0.4-1.1-0.6-2.3-0.6-3.6
			c0-1.3,0.2-2.5,0.7-3.6c0.4-1.1,1.1-2.1,1.8-2.9c0.8-0.8,1.7-1.4,2.9-1.9s2.4-0.7,3.7-0.7c1.4,0,2.6,0.2,3.7,0.7
			c1.1,0.5,2,1.1,2.8,1.9c0.8,0.8,1.4,1.8,1.8,2.9C105.5,248.6,105.7,249.8,105.7,251.1z M101.3,251.1c0-0.8-0.1-1.5-0.3-2.2
			c-0.2-0.7-0.5-1.2-0.9-1.7c-0.4-0.5-0.9-0.9-1.5-1.1c-0.6-0.3-1.2-0.4-1.9-0.4c-0.7,0-1.3,0.1-1.9,0.4c-0.6,0.3-1.1,0.6-1.5,1.1
			c-0.4,0.5-0.7,1.1-0.9,1.7c-0.2,0.7-0.3,1.4-0.3,2.2c0,0.8,0.1,1.5,0.3,2.2c0.2,0.7,0.5,1.2,0.9,1.7c0.4,0.5,0.9,0.9,1.5,1.1
			c0.6,0.3,1.2,0.4,1.9,0.4c0.7,0,1.3-0.1,1.9-0.4c0.6-0.3,1.1-0.7,1.5-1.1c0.4-0.5,0.7-1.1,0.9-1.7
			C101.2,252.6,101.3,251.9,101.3,251.1z"/>
		<path fill="#30323F" d="M126.6,252.7c0,2.4-0.7,4.3-2,5.6c-1.3,1.3-3.2,1.9-5.5,1.9c-2.4,0-4.2-0.6-5.5-1.9
			c-1.3-1.2-1.9-3.1-1.9-5.6v-10.4h4.1v10.2c0,1.2,0.3,2.2,0.8,2.9s1.4,1.1,2.6,1.1c1.2,0,2-0.4,2.5-1.1s0.8-1.7,0.8-2.9v-10.2h4.1
			V252.7z"/>
		<path fill="#30323F" d="M145.2,246v3.9h6v3.6h-6v6.4h-4.1v-17.6h11.1v3.7H145.2z"/>
		<path fill="#30323F" d="M175.3,251.1c0,1.3-0.2,2.5-0.7,3.6c-0.4,1.1-1.1,2.1-1.9,2.9c-0.8,0.8-1.8,1.4-2.9,1.9
			c-1.1,0.5-2.3,0.7-3.7,0.7c-1.4,0-2.6-0.2-3.7-0.7c-1.1-0.5-2-1.1-2.8-1.9c-0.8-0.8-1.4-1.8-1.8-2.9c-0.4-1.1-0.6-2.3-0.6-3.6
			c0-1.3,0.2-2.5,0.7-3.6c0.4-1.1,1.1-2.1,1.8-2.9c0.8-0.8,1.7-1.4,2.9-1.9s2.4-0.7,3.7-0.7c1.4,0,2.6,0.2,3.7,0.7
			c1.1,0.5,2,1.1,2.8,1.9c0.8,0.8,1.4,1.8,1.8,2.9C175.1,248.6,175.3,249.8,175.3,251.1z M170.9,251.1c0-0.8-0.1-1.5-0.3-2.2
			c-0.2-0.7-0.5-1.2-0.9-1.7c-0.4-0.5-0.9-0.9-1.5-1.1c-0.6-0.3-1.2-0.4-1.9-0.4c-0.7,0-1.3,0.1-1.9,0.4c-0.6,0.3-1.1,0.6-1.5,1.1
			c-0.4,0.5-0.7,1.1-0.9,1.7c-0.2,0.7-0.3,1.4-0.3,2.2c0,0.8,0.1,1.5,0.3,2.2c0.2,0.7,0.5,1.2,0.9,1.7c0.4,0.5,0.9,0.9,1.5,1.1
			c0.6,0.3,1.2,0.4,1.9,0.4c0.7,0,1.3-0.1,1.9-0.4c0.6-0.3,1.1-0.7,1.5-1.1c0.4-0.5,0.7-1.1,0.9-1.7
			C170.8,252.6,170.9,251.9,170.9,251.1z"/>
		<path fill="#30323F" d="M190.8,259.9l-3-5.7c-0.1,0-0.2,0-0.3,0s-0.2,0-0.3,0c-0.3,0-0.6,0-0.8,0c-0.2,0-0.5,0-0.7,0v5.8h-4.1
			v-17.4c0.8-0.1,1.5-0.1,2.4-0.2c0.8-0.1,1.8-0.1,2.8-0.1c1.4,0,2.5,0.2,3.5,0.5c1,0.3,1.7,0.7,2.4,1.2c0.6,0.5,1.1,1.1,1.3,1.9
			s0.4,1.5,0.4,2.3c0,1.1-0.3,2-0.8,2.9c-0.5,0.9-1.3,1.6-2.2,2.2l4.1,6.8H190.8z M190.1,248.1c0-0.7-0.3-1.3-0.8-1.7
			c-0.5-0.4-1.2-0.6-2.1-0.6c-0.3,0-0.6,0-0.8,0c-0.2,0-0.5,0-0.8,0.1v4.8c0.3,0,0.5,0.1,0.7,0.1c0.2,0,0.4,0,0.6,0
			c1,0,1.8-0.2,2.3-0.7S190.1,249,190.1,248.1z"/>
		<path fill="#30323F" d="M222.9,259.9l-0.2-8.6l-4.9,6.2h-0.4l-4.9-6.2l-0.2,8.6h-3.9l0.8-17.7l0.6,0l8,10.1l7.8-10.1l0.6,0
			l0.8,17.7H222.9z"/>
		<path fill="#30323F" d="M233.4,259.9v-17.6h11.1v3.7h-7.1v3.1h6.4v3.6h-6.4v3.4h7.1v3.7H233.4z"/>
		<path fill="#30323F" d="M254.4,258.6c0,0.4-0.1,0.9-0.3,1.3s-0.4,0.9-0.7,1.3s-0.6,0.8-1,1.1s-0.8,0.6-1.3,0.8l-0.3-0.5
			c0.5-0.4,0.9-0.9,1.2-1.2c0.3-0.4,0.5-0.8,0.6-1.4c-0.6,0-1.1-0.2-1.4-0.6c-0.3-0.4-0.5-0.8-0.5-1.3c0-0.5,0.2-0.9,0.5-1.3
			c0.3-0.4,0.8-0.5,1.3-0.5c0.7,0,1.2,0.2,1.5,0.7C254.2,257.5,254.4,258,254.4,258.6z"/>
		<path fill="#30323F" d="M279.5,259.9v-7.1h-6.8v7.1h-4.1v-17.6h4.1v6.9h6.8v-6.9h4.1v17.6H279.5z"/>
		<path fill="#30323F" d="M290.4,259.9v-17.6h11.1v3.7h-7.1v3.1h6.4v3.6h-6.4v3.4h7.1v3.7H290.4z"/>
		<path fill="#30323F" d="M317.5,259.9l-3-5.7c-0.1,0-0.2,0-0.3,0s-0.2,0-0.3,0c-0.3,0-0.6,0-0.8,0c-0.2,0-0.5,0-0.7,0v5.8h-4.1
			v-17.4c0.8-0.1,1.5-0.1,2.4-0.2c0.8-0.1,1.8-0.1,2.8-0.1c1.4,0,2.5,0.2,3.5,0.5c1,0.3,1.7,0.7,2.4,1.2c0.6,0.5,1.1,1.1,1.3,1.9
			s0.4,1.5,0.4,2.3c0,1.1-0.3,2-0.8,2.9c-0.5,0.9-1.3,1.6-2.2,2.2l4.1,6.8H317.5z M316.7,248.1c0-0.7-0.3-1.3-0.8-1.7
			c-0.5-0.4-1.2-0.6-2.1-0.6c-0.3,0-0.6,0-0.8,0c-0.2,0-0.5,0-0.8,0.1v4.8c0.3,0,0.5,0.1,0.7,0.1c0.2,0,0.4,0,0.6,0
			c1,0,1.8-0.2,2.3-0.7S316.7,249,316.7,248.1z"/>
		<path fill="#30323F" d="M327.3,259.9v-17.6h11.1v3.7h-7.1v3.1h6.4v3.6h-6.4v3.4h7.1v3.7H327.3z"/>
	</g>
	<g>
		<path fill="#C63136" d="M12.7,198.5c0.7,0,1.4,0.1,2,0.4c0.7,0.3,1.2,0.6,1.8,1.2c0.5,0.5,0.9,1.2,1.2,2s0.5,1.7,0.5,2.8
			c0,0.5,0,1-0.1,1.5c-0.1,0.5-0.2,1.1-0.4,1.6c-0.2,0.5-0.3,1-0.6,1.5c-0.2,0.5-0.5,0.9-0.7,1.3l-3.7-1.1c0.5-0.7,0.9-1.5,1.2-2.4
			c0.3-0.9,0.5-1.7,0.5-2.5c0-0.7-0.1-1.2-0.4-1.5c-0.3-0.3-0.7-0.5-1.1-0.5c-0.2,0-0.4,0-0.6,0.1c-0.2,0.1-0.4,0.2-0.6,0.5
			c-0.2,0.2-0.4,0.6-0.6,1c-0.2,0.4-0.5,0.9-0.7,1.6c-0.3,0.8-0.7,1.4-1,2c-0.4,0.5-0.8,1-1.2,1.3s-0.9,0.6-1.4,0.7
			c-0.5,0.1-1,0.2-1.5,0.2c-0.6,0-1.3-0.1-1.9-0.4c-0.6-0.3-1.1-0.7-1.6-1.2c-0.5-0.5-0.9-1.2-1.1-1.9c-0.3-0.8-0.4-1.7-0.4-2.7
			c0-0.5,0-1,0.1-1.4c0.1-0.5,0.2-0.9,0.3-1.4c0.1-0.4,0.3-0.8,0.4-1.2c0.2-0.4,0.3-0.7,0.5-0.9l3.6,1c-0.2,0.3-0.3,0.5-0.5,0.9
			c-0.2,0.3-0.3,0.7-0.5,1c-0.1,0.3-0.2,0.7-0.3,1s-0.1,0.7-0.1,1c0,0.8,0.1,1.3,0.4,1.6c0.3,0.3,0.6,0.5,1,0.5
			c0.3,0,0.5-0.1,0.7-0.2c0.2-0.1,0.4-0.3,0.6-0.6c0.2-0.3,0.4-0.6,0.5-1c0.2-0.4,0.4-0.9,0.6-1.4c0.4-0.8,0.7-1.5,1.1-2.1
			c0.4-0.6,0.8-1,1.2-1.3c0.4-0.3,0.9-0.6,1.4-0.7C11.6,198.6,12.1,198.5,12.7,198.5z"/>
		<path fill="#C63136" d="M17.9,192.7H0.3v-11.1H4v7.1h3.1v-6.4h3.6v6.4h3.4v-7.1h3.7V192.7z"/>
		<path fill="#C63136" d="M17.9,174.9H0.3v-4.1h13.9v-7.1h3.7V174.9z"/>
		<path fill="#C63136" d="M4,154.4h3.9v-6h3.6v6h6.4v4.1H0.3v-11.1H4V154.4z"/>
	</g>
	<g>
		<path fill="#C63136" d="M817.7,129c-0.7,0-1.4-0.1-2-0.4c-0.7-0.3-1.2-0.6-1.8-1.2c-0.5-0.5-0.9-1.2-1.2-2
			c-0.3-0.8-0.5-1.7-0.5-2.8c0-0.5,0-1,0.1-1.5c0.1-0.5,0.2-1.1,0.4-1.6c0.2-0.5,0.3-1,0.6-1.5c0.2-0.5,0.5-0.9,0.7-1.3l3.7,1.1
			c-0.5,0.7-0.9,1.5-1.2,2.4c-0.3,0.9-0.5,1.7-0.5,2.5c0,0.7,0.1,1.2,0.4,1.5c0.3,0.3,0.7,0.5,1.1,0.5c0.2,0,0.4,0,0.6-0.1
			c0.2-0.1,0.4-0.2,0.6-0.5c0.2-0.2,0.4-0.6,0.6-1c0.2-0.4,0.5-0.9,0.7-1.6c0.3-0.8,0.7-1.4,1-2c0.4-0.5,0.8-1,1.2-1.3
			c0.4-0.3,0.9-0.6,1.4-0.7c0.5-0.1,1-0.2,1.5-0.2c0.6,0,1.3,0.1,1.9,0.4c0.6,0.3,1.1,0.7,1.6,1.2c0.5,0.5,0.9,1.2,1.1,1.9
			c0.3,0.8,0.4,1.7,0.4,2.7c0,0.5,0,1-0.1,1.4c-0.1,0.5-0.2,0.9-0.3,1.4s-0.3,0.8-0.4,1.2c-0.2,0.4-0.3,0.7-0.5,0.9l-3.6-1
			c0.2-0.3,0.3-0.5,0.5-0.9c0.2-0.3,0.3-0.7,0.5-1c0.1-0.3,0.2-0.7,0.3-1s0.1-0.7,0.1-1c0-0.8-0.1-1.3-0.4-1.6s-0.6-0.5-1-0.5
			c-0.3,0-0.5,0.1-0.7,0.2c-0.2,0.1-0.4,0.3-0.6,0.6c-0.2,0.3-0.4,0.6-0.5,1c-0.2,0.4-0.4,0.9-0.6,1.4c-0.4,0.8-0.7,1.5-1.1,2.1
			c-0.4,0.6-0.8,1-1.2,1.3c-0.4,0.3-0.9,0.6-1.4,0.7C818.8,128.9,818.3,129,817.7,129z"/>
		<path fill="#C63136" d="M812.5,134.8h17.6v11.1h-3.7v-7.1h-3.1v6.4h-3.6v-6.4h-3.4v7.1h-3.7V134.8z"/>
		<path fill="#C63136" d="M812.5,161.9l5.7-3c0-0.1,0-0.2,0-0.3s0-0.2,0-0.3c0-0.3,0-0.6,0-0.8c0-0.2,0-0.5,0-0.7h-5.8v-4.1H830
			c0.1,0.8,0.1,1.5,0.2,2.4s0.1,1.8,0.1,2.8c0,1.4-0.2,2.5-0.5,3.5c-0.3,1-0.7,1.7-1.2,2.4c-0.5,0.6-1.1,1.1-1.9,1.3
			c-0.7,0.3-1.5,0.4-2.3,0.4c-1.1,0-2-0.3-2.9-0.8c-0.9-0.5-1.6-1.3-2.2-2.2l-6.8,4.1V161.9z M824.3,161.1c0.7,0,1.3-0.3,1.7-0.8
			c0.4-0.5,0.6-1.2,0.6-2.1c0-0.3,0-0.6,0-0.8c0-0.2,0-0.5-0.1-0.8h-4.8c0,0.3-0.1,0.5-0.1,0.7c0,0.2,0,0.4,0,0.6
			c0,1,0.2,1.8,0.7,2.3S823.4,161.1,824.3,161.1z"/>
		<path fill="#C63136" d="M812.4,178.4v-0.5l17.7-8.4v4.7l-9.5,4l9.5,4v4.6L812.4,178.4z"/>
		<path fill="#C63136" d="M812.5,191.6h17.6v4.1h-17.6V191.6z"/>
		<path fill="#C63136" d="M813.9,217.3c-0.5-0.8-0.9-1.7-1.2-2.7c-0.3-1-0.4-2-0.4-3c0-1.4,0.2-2.7,0.7-3.9c0.5-1.2,1.1-2.2,1.9-3
			c0.8-0.8,1.8-1.5,2.9-2c1.1-0.5,2.3-0.7,3.6-0.7c1.3,0,2.5,0.2,3.6,0.7c1.1,0.5,2.1,1.1,2.9,2c0.8,0.8,1.4,1.9,1.9,3
			c0.5,1.2,0.7,2.5,0.7,3.9c0,1-0.1,2-0.4,2.9s-0.7,1.8-1.1,2.6l-3.5-1.2c0.4-0.7,0.7-1.3,0.9-2.1c0.2-0.7,0.3-1.4,0.3-2.1
			c0-0.8-0.1-1.6-0.4-2.2c-0.2-0.7-0.6-1.2-1-1.7c-0.5-0.5-1-0.8-1.7-1.1s-1.4-0.4-2.2-0.4c-0.8,0-1.5,0.1-2.2,0.4s-1.2,0.6-1.7,1.1
			c-0.5,0.5-0.8,1-1.1,1.7c-0.2,0.7-0.4,1.4-0.4,2.2c0,0.7,0.1,1.5,0.3,2.2c0.2,0.8,0.5,1.5,1,2.2L813.9,217.3z"/>
		<path fill="#C63136" d="M812.5,223h17.6v11.1h-3.7v-7.1h-3.1v6.4h-3.6v-6.4h-3.4v7.1h-3.7V223z"/>
	</g>
	<g>
		<path fill="#30323F" d="M462.4,116.6c0,2.4-0.7,4.3-2,5.6c-1.3,1.3-3.2,1.9-5.5,1.9c-2.4,0-4.2-0.6-5.5-1.9s-1.9-3.1-1.9-5.6
			v-10.4h4.1v10.2c0,1.2,0.3,2.2,0.8,2.9s1.4,1.1,2.6,1.1c1.2,0,2-0.4,2.5-1.1s0.8-1.7,0.8-2.9v-10.2h4.1V116.6z"/>
		<path fill="#30323F" d="M479.9,118.6c0,0.7-0.1,1.4-0.4,2c-0.3,0.7-0.6,1.2-1.2,1.8c-0.5,0.5-1.2,0.9-2,1.2s-1.7,0.5-2.8,0.5
			c-0.5,0-1,0-1.5-0.1s-1.1-0.2-1.6-0.4c-0.5-0.2-1-0.3-1.5-0.6c-0.5-0.2-0.9-0.5-1.3-0.7l1.1-3.7c0.7,0.5,1.5,0.9,2.4,1.2
			c0.9,0.3,1.7,0.5,2.5,0.5c0.7,0,1.2-0.1,1.5-0.4c0.3-0.3,0.5-0.7,0.5-1.1c0-0.2,0-0.4-0.1-0.6s-0.2-0.4-0.5-0.6
			c-0.2-0.2-0.6-0.4-1-0.6c-0.4-0.2-0.9-0.5-1.6-0.7c-0.8-0.3-1.4-0.7-2-1c-0.5-0.4-1-0.8-1.3-1.2s-0.6-0.9-0.7-1.4
			c-0.1-0.5-0.2-1-0.2-1.5c0-0.6,0.1-1.3,0.4-1.9c0.3-0.6,0.7-1.1,1.2-1.6c0.5-0.5,1.2-0.9,1.9-1.1c0.8-0.3,1.7-0.4,2.7-0.4
			c0.5,0,1,0,1.4,0.1c0.5,0.1,0.9,0.2,1.4,0.3c0.4,0.1,0.8,0.3,1.2,0.4c0.4,0.2,0.7,0.3,0.9,0.5l-1,3.6c-0.3-0.2-0.5-0.3-0.9-0.5
			s-0.7-0.3-1-0.5c-0.3-0.1-0.7-0.2-1-0.3c-0.3-0.1-0.7-0.1-1-0.1c-0.8,0-1.3,0.1-1.6,0.4c-0.3,0.3-0.5,0.6-0.5,1
			c0,0.3,0.1,0.5,0.2,0.7c0.1,0.2,0.3,0.4,0.6,0.6c0.3,0.2,0.6,0.4,1,0.5c0.4,0.2,0.9,0.4,1.4,0.6c0.8,0.4,1.5,0.7,2.1,1.1
			c0.6,0.4,1,0.8,1.3,1.2c0.3,0.4,0.6,0.9,0.7,1.4C479.8,117.5,479.9,118,479.9,118.6z"/>
		<path fill="#30323F" d="M497.8,109.9v3.9h6v3.6h-6v6.4h-4.1v-17.6h11.1v3.7H497.8z"/>
		<path fill="#30323F" d="M527.8,115c0,1.3-0.2,2.5-0.7,3.6s-1.1,2.1-1.9,2.9c-0.8,0.8-1.8,1.4-2.9,1.9c-1.1,0.5-2.3,0.7-3.7,0.7
			c-1.4,0-2.6-0.2-3.7-0.7s-2-1.1-2.8-1.9c-0.8-0.8-1.4-1.8-1.8-2.9s-0.6-2.3-0.6-3.6c0-1.3,0.2-2.5,0.7-3.6
			c0.4-1.1,1.1-2.1,1.8-2.9s1.7-1.4,2.9-1.9c1.1-0.5,2.4-0.7,3.7-0.7c1.4,0,2.6,0.2,3.7,0.7c1.1,0.5,2,1.1,2.8,1.9
			c0.8,0.8,1.4,1.8,1.8,2.9C527.6,112.5,527.8,113.7,527.8,115z M523.5,115c0-0.8-0.1-1.5-0.3-2.2c-0.2-0.7-0.5-1.2-0.9-1.7
			c-0.4-0.5-0.9-0.9-1.5-1.1c-0.6-0.3-1.2-0.4-1.9-0.4c-0.7,0-1.3,0.1-1.9,0.4c-0.6,0.3-1.1,0.6-1.5,1.1c-0.4,0.5-0.7,1.1-0.9,1.7
			c-0.2,0.7-0.3,1.4-0.3,2.2c0,0.8,0.1,1.5,0.3,2.2c0.2,0.7,0.5,1.2,0.9,1.7c0.4,0.5,0.9,0.9,1.5,1.1c0.6,0.3,1.2,0.4,1.9,0.4
			c0.7,0,1.3-0.1,1.9-0.4c0.6-0.3,1.1-0.7,1.5-1.1c0.4-0.5,0.7-1.1,0.9-1.7C523.3,116.5,523.5,115.8,523.5,115z"/>
		<path fill="#30323F" d="M543.4,123.8l-3-5.7c-0.1,0-0.2,0-0.3,0c-0.1,0-0.2,0-0.3,0c-0.3,0-0.6,0-0.8,0c-0.2,0-0.5,0-0.7,0v5.8
			h-4.1v-17.4c0.8-0.1,1.5-0.1,2.4-0.2s1.8-0.1,2.8-0.1c1.4,0,2.5,0.2,3.5,0.5c1,0.3,1.7,0.7,2.4,1.2c0.6,0.5,1.1,1.1,1.3,1.9
			c0.3,0.7,0.4,1.5,0.4,2.3c0,1.1-0.3,2-0.8,2.9c-0.5,0.9-1.3,1.6-2.2,2.2l4.1,6.8H543.4z M542.7,112c0-0.7-0.3-1.3-0.8-1.7
			c-0.5-0.4-1.2-0.6-2.1-0.6c-0.3,0-0.6,0-0.8,0c-0.2,0-0.5,0-0.8,0.1v4.8c0.3,0,0.5,0.1,0.7,0.1c0.2,0,0.4,0,0.6,0
			c1,0,1.8-0.2,2.3-0.7S542.7,112.9,542.7,112z"/>
		<path fill="#30323F" d="M569.1,109.9v13.8H565v-13.8h-5.3v-3.7h14.6v3.7H569.1z"/>
		<path fill="#30323F" d="M590.8,123.8v-7.1H584v7.1h-4.1v-17.6h4.1v6.9h6.8v-6.9h4.1v17.6H590.8z"/>
		<path fill="#30323F" d="M601.7,123.8v-17.6h11.1v3.7h-7.1v3.1h6.4v3.6h-6.4v3.4h7.1v3.7H601.7z"/>
		<path fill="#30323F" d="M633.7,123.8l-0.2-8.6l-4.9,6.2h-0.4l-4.9-6.2l-0.2,8.6h-3.9L620,106l0.6,0l8,10.1l7.8-10.1l0.6,0
			l0.8,17.7H633.7z"/>
		<path fill="#30323F" d="M647.6,122.5c0,0.4-0.1,0.9-0.3,1.3s-0.4,0.9-0.7,1.3c-0.3,0.4-0.6,0.8-1,1.1c-0.4,0.3-0.8,0.6-1.3,0.8
			l-0.3-0.5c0.5-0.4,0.9-0.9,1.2-1.2c0.3-0.4,0.5-0.8,0.6-1.4c-0.6,0-1.1-0.2-1.4-0.6s-0.5-0.8-0.5-1.3c0-0.5,0.2-0.9,0.5-1.3
			c0.3-0.4,0.8-0.5,1.3-0.5c0.7,0,1.2,0.2,1.5,0.7C647.4,121.4,647.6,121.9,647.6,122.5z"/>
		<path fill="#30323F" d="M669.8,109.9v13.8h-4.1v-13.8h-5.3v-3.7h14.6v3.7H669.8z"/>
		<path fill="#30323F" d="M691.5,123.8v-7.1h-6.8v7.1h-4.1v-17.6h4.1v6.9h6.8v-6.9h4.1v17.6H691.5z"/>
		<path fill="#30323F" d="M702.4,123.8v-17.6h11.1v3.7h-7.1v3.1h6.4v3.6h-6.4v3.4h7.1v3.7H702.4z"/>
		<path fill="#30323F" d="M729.4,123.8l-3-5.7c-0.1,0-0.2,0-0.3,0s-0.2,0-0.3,0c-0.3,0-0.6,0-0.8,0c-0.2,0-0.5,0-0.7,0v5.8h-4.1
			v-17.4c0.8-0.1,1.5-0.1,2.4-0.2c0.8-0.1,1.8-0.1,2.8-0.1c1.4,0,2.5,0.2,3.5,0.5c1,0.3,1.7,0.7,2.4,1.2c0.6,0.5,1.1,1.1,1.3,1.9
			s0.4,1.5,0.4,2.3c0,1.1-0.3,2-0.8,2.9c-0.5,0.9-1.3,1.6-2.2,2.2l4.1,6.8H729.4z M728.7,112c0-0.7-0.3-1.3-0.8-1.7
			c-0.5-0.4-1.2-0.6-2.1-0.6c-0.3,0-0.6,0-0.8,0c-0.2,0-0.5,0-0.8,0.1v4.8c0.3,0,0.5,0.1,0.7,0.1c0.2,0,0.4,0,0.6,0
			c1,0,1.8-0.2,2.3-0.7C728.4,113.6,728.7,112.9,728.7,112z"/>
		<path fill="#30323F" d="M739.2,123.8v-17.6h11.1v3.7h-7.1v3.1h6.4v3.6h-6.4v3.4h7.1v3.7H739.2z"/>
	</g>
	<g>
		<path fill="#C63136" d="M314,17.9l-3-5.7c-0.1,0-0.2,0-0.3,0s-0.2,0-0.3,0c-0.3,0-0.6,0-0.8,0c-0.2,0-0.5,0-0.7,0v5.8h-4.1V0.5
			c0.8-0.1,1.5-0.1,2.4-0.2s1.8-0.1,2.8-0.1c1.4,0,2.5,0.2,3.5,0.5c1,0.3,1.7,0.7,2.4,1.2c0.6,0.5,1.1,1.1,1.3,1.9s0.4,1.5,0.4,2.3
			c0,1.1-0.3,2-0.8,2.9c-0.5,0.9-1.3,1.6-2.2,2.2l4.1,6.8H314z M313.2,6.2c0-0.7-0.3-1.3-0.8-1.7c-0.5-0.4-1.2-0.6-2.1-0.6
			c-0.3,0-0.6,0-0.8,0c-0.2,0-0.5,0-0.8,0.1v4.8c0.3,0,0.5,0.1,0.7,0.1c0.2,0,0.4,0,0.6,0c1,0,1.8-0.2,2.3-0.7S313.2,7.1,313.2,6.2z
			"/>
		<path fill="#C63136" d="M323.8,17.9V0.3h11.1v3.7h-7.1v3.1h6.4v3.6h-6.4v3.4h7.1v3.7H323.8z"/>
		<path fill="#C63136" d="M341.5,17.9V0.3h4.1v13.9h7.1v3.7H341.5z"/>
		<path fill="#C63136" d="M368.7,17.9l-1.3-3.2h-6.1l-1.3,3.2h-4.2l8.3-17.7h0.6l8.3,17.7H368.7z M364.3,7.4l-1.8,4.2h3.5L364.3,7.4
			z"/>
		<path fill="#C63136" d="M385.6,4.1v13.8h-4.1V4.1h-5.3V0.3h14.6v3.7H385.6z"/>
		<path fill="#C63136" d="M396.6,17.9V0.3h4.1v17.6H396.6z"/>
		<path fill="#C63136" d="M425,9.1c0,1.3-0.2,2.5-0.7,3.6s-1.1,2.1-1.9,2.9c-0.8,0.8-1.8,1.4-2.9,1.9c-1.1,0.5-2.3,0.7-3.7,0.7
			c-1.4,0-2.6-0.2-3.7-0.7s-2-1.1-2.8-1.9c-0.8-0.8-1.4-1.8-1.8-2.9s-0.6-2.3-0.6-3.6c0-1.3,0.2-2.5,0.7-3.6
			c0.4-1.1,1.1-2.1,1.8-2.9s1.7-1.4,2.9-1.9c1.1-0.5,2.4-0.7,3.7-0.7c1.4,0,2.6,0.2,3.7,0.7c1.1,0.5,2,1.1,2.8,1.9
			c0.8,0.8,1.4,1.8,1.8,2.9C424.8,6.6,425,7.8,425,9.1z M420.7,9.1c0-0.8-0.1-1.5-0.3-2.2c-0.2-0.7-0.5-1.2-0.9-1.7
			c-0.4-0.5-0.9-0.9-1.5-1.1c-0.6-0.3-1.2-0.4-1.9-0.4c-0.7,0-1.3,0.1-1.9,0.4c-0.6,0.3-1.1,0.6-1.5,1.1c-0.4,0.5-0.7,1.1-0.9,1.7
			c-0.2,0.7-0.3,1.4-0.3,2.2c0,0.8,0.1,1.5,0.3,2.2c0.2,0.7,0.5,1.2,0.9,1.7c0.4,0.5,0.9,0.9,1.5,1.1c0.6,0.3,1.2,0.4,1.9,0.4
			c0.7,0,1.3-0.1,1.9-0.4c0.6-0.3,1.1-0.7,1.5-1.1c0.4-0.5,0.7-1.1,0.9-1.7C420.6,10.7,420.7,9.9,420.7,9.1z"/>
		<path fill="#C63136" d="M446,18.3l-10.6-9.5v9.2h-4.1V0.1l0.6-0.1l10.5,9.5V0.3h4.1v17.9L446,18.3z"/>
		<path fill="#C63136" d="M463.9,17.9l-1.3-3.2h-6.1l-1.3,3.2H451l8.3-17.7h0.6l8.3,17.7H463.9z M459.6,7.4l-1.8,4.2h3.5L459.6,7.4z
			"/>
		<path fill="#C63136" d="M472.8,17.9V0.3h4.1v13.9h7.1v3.7H472.8z"/>
	</g>
	<g>
		<path fill="#C63136" d="M308.6,361v-17.6h4.1V361H308.6z"/>
		<path fill="#C63136" d="M334.4,361.3l-10.6-9.5v9.2h-4.1v-17.8l0.6-0.1l10.5,9.5v-9.1h4.1v17.9L334.4,361.3z"/>
		<path fill="#C63136" d="M357.5,352c0,1.3-0.2,2.5-0.6,3.6c-0.4,1.1-1.1,2.1-1.9,2.9c-0.9,0.8-1.9,1.4-3.3,1.9s-2.9,0.7-4.7,0.7
			c-0.5,0-1,0-1.4,0c-0.4,0-0.8,0-1.2,0c-0.4,0-0.8-0.1-1.3-0.1c-0.4,0-0.9-0.1-1.5-0.1v-17.3c1-0.1,1.9-0.2,2.7-0.2
			c0.8,0,1.6-0.1,2.5-0.1c1.8,0,3.4,0.2,4.8,0.7c1.3,0.4,2.5,1.1,3.3,1.8s1.5,1.7,2,2.8C357.3,349.6,357.5,350.8,357.5,352z
			 M353.2,352c0-1.6-0.5-2.9-1.5-3.8c-1-0.9-2.4-1.4-4.3-1.4c-0.4,0-0.6,0-0.9,0c-0.2,0-0.5,0-0.8,0.1v10.4c0.2,0,0.4,0,0.5,0
			c0.1,0,0.3,0,0.4,0s0.3,0,0.5,0c0.2,0,0.4,0,0.6,0c1,0,1.8-0.1,2.5-0.4c0.7-0.3,1.3-0.6,1.7-1.1c0.5-0.5,0.8-1.1,1-1.7
			S353.2,352.8,353.2,352z"/>
		<path fill="#C63136" d="M363.9,361v-17.6h4.1V361H363.9z"/>
		<path fill="#C63136" d="M381.6,361.1h-0.5l-8.4-17.7h4.7l4,9.5l4-9.5h4.6L381.6,361.1z"/>
		<path fill="#C63136" d="M394.8,361v-17.6h4.1V361H394.8z"/>
		<path fill="#C63136" d="M421.8,352c0,1.3-0.2,2.5-0.6,3.6c-0.4,1.1-1.1,2.1-1.9,2.9c-0.9,0.8-1.9,1.4-3.3,1.9s-2.9,0.7-4.7,0.7
			c-0.5,0-1,0-1.4,0c-0.4,0-0.8,0-1.2,0c-0.4,0-0.8-0.1-1.3-0.1c-0.4,0-0.9-0.1-1.5-0.1v-17.3c1-0.1,1.9-0.2,2.7-0.2
			c0.8,0,1.6-0.1,2.5-0.1c1.8,0,3.4,0.2,4.8,0.7c1.3,0.4,2.5,1.1,3.3,1.8s1.5,1.7,2,2.8C421.6,349.6,421.8,350.8,421.8,352z
			 M417.4,352c0-1.6-0.5-2.9-1.5-3.8c-1-0.9-2.4-1.4-4.3-1.4c-0.4,0-0.6,0-0.9,0c-0.2,0-0.5,0-0.8,0.1v10.4c0.2,0,0.4,0,0.5,0
			c0.1,0,0.3,0,0.4,0s0.3,0,0.5,0c0.2,0,0.4,0,0.6,0c1,0,1.8-0.1,2.5-0.4s1.3-0.6,1.7-1.1c0.5-0.5,0.8-1.1,1-1.7
			S417.4,352.8,417.4,352z"/>
		<path fill="#C63136" d="M442.7,353.8c0,2.4-0.7,4.3-2,5.6c-1.3,1.3-3.2,1.9-5.5,1.9c-2.4,0-4.2-0.6-5.5-1.9s-1.9-3.1-1.9-5.6
			v-10.4h4.1v10.2c0,1.2,0.3,2.2,0.8,2.9s1.4,1.1,2.6,1.1c1.2,0,2-0.4,2.5-1.1s0.8-1.7,0.8-2.9v-10.2h4.1V353.8z"/>
		<path fill="#C63136" d="M460,361l-1.3-3.2h-6.1l-1.3,3.2h-4.2l8.3-17.7h0.6l8.3,17.7H460z M455.7,350.4l-1.8,4.2h3.5L455.7,350.4z
			"/>
		<path fill="#C63136" d="M469,361v-17.6h4.1v13.9h7.1v3.7H469z"/>
	</g>
	<g>
		<path fill="#30323F" d="M462,259.9l-0.2-8.6l-4.9,6.2h-0.4l-4.9-6.2l-0.2,8.6h-3.9l0.8-17.7l0.6,0l8,10.1l7.8-10.1l0.6,0l0.8,17.7
			H462z"/>
		<path fill="#30323F" d="M472.6,259.9v-17.6h11.1v3.7h-7.1v3.1h6.4v3.6h-6.4v3.4h7.1v3.7H472.6z"/>
		<path fill="#30323F" d="M502.3,246v3.9h6v3.6h-6v6.4h-4.1v-17.6h11.1v3.7H502.3z"/>
		<path fill="#30323F" d="M532.4,251.1c0,1.3-0.2,2.5-0.7,3.6c-0.4,1.1-1.1,2.1-1.9,2.9s-1.8,1.4-2.9,1.9s-2.3,0.7-3.7,0.7
			s-2.6-0.2-3.7-0.7c-1.1-0.5-2-1.1-2.8-1.9c-0.8-0.8-1.4-1.8-1.8-2.9c-0.4-1.1-0.6-2.3-0.6-3.6c0-1.3,0.2-2.5,0.7-3.6
			c0.4-1.1,1.1-2.1,1.8-2.9c0.8-0.8,1.7-1.4,2.9-1.9s2.4-0.7,3.7-0.7s2.6,0.2,3.7,0.7c1.1,0.5,2,1.1,2.8,1.9
			c0.8,0.8,1.4,1.8,1.8,2.9S532.4,249.8,532.4,251.1z M528,251.1c0-0.8-0.1-1.5-0.3-2.2c-0.2-0.7-0.5-1.2-0.9-1.7
			c-0.4-0.5-0.9-0.9-1.5-1.1c-0.6-0.3-1.2-0.4-1.9-0.4c-0.7,0-1.3,0.1-1.9,0.4c-0.6,0.3-1.1,0.6-1.5,1.1c-0.4,0.5-0.7,1.1-0.9,1.7
			s-0.3,1.4-0.3,2.2c0,0.8,0.1,1.5,0.3,2.2s0.5,1.2,0.9,1.7s0.9,0.9,1.5,1.1c0.6,0.3,1.2,0.4,1.9,0.4c0.7,0,1.3-0.1,1.9-0.4
			c0.6-0.3,1.1-0.7,1.5-1.1s0.7-1.1,0.9-1.7C527.9,252.6,528,251.9,528,251.1z"/>
		<path fill="#30323F" d="M547.9,259.9l-3-5.7c-0.1,0-0.2,0-0.3,0c-0.1,0-0.2,0-0.3,0c-0.3,0-0.6,0-0.8,0c-0.2,0-0.5,0-0.7,0v5.8
			h-4.1v-17.4c0.8-0.1,1.5-0.1,2.4-0.2c0.8-0.1,1.8-0.1,2.8-0.1c1.4,0,2.5,0.2,3.5,0.5c1,0.3,1.7,0.7,2.4,1.2s1.1,1.1,1.3,1.9
			c0.3,0.7,0.4,1.5,0.4,2.3c0,1.1-0.3,2-0.8,2.9c-0.5,0.9-1.3,1.6-2.2,2.2l4.1,6.8H547.9z M547.2,248.1c0-0.7-0.3-1.3-0.8-1.7
			c-0.5-0.4-1.2-0.6-2.1-0.6c-0.3,0-0.6,0-0.8,0c-0.2,0-0.5,0-0.8,0.1v4.8c0.3,0,0.5,0.1,0.7,0.1c0.2,0,0.4,0,0.6,0
			c1,0,1.8-0.2,2.3-0.7S547.2,249,547.2,248.1z"/>
		<path fill="#30323F" d="M573.7,246v13.8h-4.1V246h-5.3v-3.7H579v3.7H573.7z"/>
		<path fill="#30323F" d="M595.3,259.9v-7.1h-6.8v7.1h-4.1v-17.6h4.1v6.9h6.8v-6.9h4.1v17.6H595.3z"/>
		<path fill="#30323F" d="M606.3,259.9v-17.6h11.1v3.7h-7.1v3.1h6.4v3.6h-6.4v3.4h7.1v3.7H606.3z"/>
		<path fill="#30323F" d="M638.3,259.9l-0.2-8.6l-4.9,6.2h-0.4l-4.9-6.2l-0.2,8.6h-3.9l0.8-17.7l0.6,0l8,10.1l7.8-10.1l0.6,0
			l0.8,17.7H638.3z"/>
		<path fill="#30323F" d="M652.1,258.6c0,0.4-0.1,0.9-0.3,1.3s-0.4,0.9-0.7,1.3c-0.3,0.4-0.6,0.8-1,1.1c-0.4,0.3-0.8,0.6-1.3,0.8
			l-0.3-0.5c0.5-0.4,0.9-0.9,1.2-1.2c0.3-0.4,0.5-0.8,0.6-1.4c-0.6,0-1.1-0.2-1.4-0.6c-0.3-0.4-0.5-0.8-0.5-1.3
			c0-0.5,0.2-0.9,0.5-1.3s0.8-0.5,1.3-0.5c0.7,0,1.2,0.2,1.5,0.7C651.9,257.5,652.1,258,652.1,258.6z"/>
		<path fill="#30323F" d="M674.4,246v13.8h-4.1V246H665v-3.7h14.6v3.7H674.4z"/>
		<path fill="#30323F" d="M696,259.9v-7.1h-6.8v7.1h-4.1v-17.6h4.1v6.9h6.8v-6.9h4.1v17.6H696z"/>
		<path fill="#30323F" d="M707,259.9v-17.6h11.1v3.7H711v3.1h6.4v3.6H711v3.4h7.1v3.7H707z"/>
		<path fill="#30323F" d="M734,259.9l-3-5.7c-0.1,0-0.2,0-0.3,0s-0.2,0-0.3,0c-0.3,0-0.6,0-0.8,0s-0.5,0-0.7,0v5.8h-4.1v-17.4
			c0.8-0.1,1.5-0.1,2.4-0.2c0.8-0.1,1.8-0.1,2.8-0.1c1.4,0,2.5,0.2,3.5,0.5c1,0.3,1.7,0.7,2.4,1.2c0.6,0.5,1.1,1.1,1.3,1.9
			s0.4,1.5,0.4,2.3c0,1.1-0.3,2-0.8,2.9c-0.5,0.9-1.3,1.6-2.2,2.2l4.1,6.8H734z M733.3,248.1c0-0.7-0.3-1.3-0.8-1.7
			c-0.5-0.4-1.2-0.6-2.1-0.6c-0.3,0-0.6,0-0.8,0c-0.2,0-0.5,0-0.8,0.1v4.8c0.3,0,0.5,0.1,0.7,0.1c0.2,0,0.4,0,0.6,0
			c1,0,1.8-0.2,2.3-0.7C733,249.7,733.3,249,733.3,248.1z"/>
		<path fill="#30323F" d="M743.8,259.9v-17.6h11.1v3.7h-7.1v3.1h6.4v3.6h-6.4v3.4h7.1v3.7H743.8z"/>
	</g>
</g>
</svg>
