<svg xmlns="http://www.w3.org/2000/svg" viewBox="0 0 128.7 71.1" enable-background="new 0 0 128.7 71.1"><path fill="#30323F" d="M13.1 63.5l3.1-3.9c2.9 2.3 6.2 4 9.8 5.1l-1.5 4.8c-4.2-1.3-8-3.3-11.4-6zm-8.5-9.6C2.4 50.2.8 46.2 0 41.9l4.9-.9c.7 3.7 2 7.1 3.9 10.3l-4.2 2.6zM37 71.1v-5h12v5H37zm-37-42c.8-4.3 2.3-8.3 4.6-12l4.3 2.6c-2 3.2-3.3 6.7-4 10.3L0 29.1zm61 42v-5h12v5H61zM16.2 11.5l-3.1-3.9c3.4-2.7 7.2-4.7 11.4-5.9L26 6.5c-3.6.9-6.9 2.7-9.8 5zM85 71.1v-5h8.1c1.2 0 2.4-.1 3.6-.2l.6 5c-1.4.2-2.8.2-4.2.2H85zM37.1 5V0h12v5h-12zm72.5 62.1l-2.3-4.4c3.3-1.7 6.2-4 8.7-6.8l3.7 3.3c-2.9 3.2-6.3 5.9-10.1 7.9zM61.1 5V0h12v5h-12zm60.6 41.5c1.3-3.5 2-7.1 2-10.8h5c0 4.3-.8 8.6-2.3 12.6l-4.7-1.8zM85.1 5V0h8.2c1.4 0 2.8.1 4.1.2l-.6 5c-1.2-.1-2.4-.2-3.6-.2h-8.1zm38.6 30.6c0-3.7-.7-7.4-2-10.8l4.7-1.8c1.5 4 2.3 8.3 2.3 12.6h-5zM107.3 8.5l2.3-4.4c2.5 1.3 4.9 3 7.1 4.9 1.1.9 2.1 2 3 3l-3.7 3.3c-.8-.9-1.7-1.8-2.6-2.6-1.9-1.6-3.9-3.1-6.1-4.2z"/></svg>