<svg xmlns="http://www.w3.org/2000/svg" viewBox="101 -2.3 998.3 1000.9" enable-background="new 101 -2.3 998.3 1000.9"><path fill="#73C4B0" d="M792.1 921.2L782 944.9l24.6 7.1c-146.1 68.3-316.9 61.4-457.5-18.6L339 909.1l27.3-5.7c131 74.6 290 81.2 425.8 17.8zm235.2-680.8c47.8 79 72.8 169.3 71.9 261l-16.6 22-17.7-22c.6-85.5-22.7-169.7-67.1-243.1-42.1-69.6-101.6-127.1-172.4-166.2l22-6.5-5.2-23.2c75.8 41.5 140 103.4 185.1 178zM341.9 71.5l29.2 2.7-11.5 26.5C218.3 186.2 132.4 342.1 135 507.1l-17-17.7-17 18.3c-1.5-85.8 19.2-171 60.1-246.9C203.2 183 265.9 117.5 341.9 71.5z"/><path fill="#30323F" d="M323.4 870.2l-23.2 29.6-18.8-14.6 5-6.2 11.9 9.2 4-5.2-10.8-8.6 4.7-6.1 11.1 8.5 4.4-5.9-11.9-9.2 5-6.2 18.6 14.7zm-51.1-45l2.7 30.3 13.3-14.4 6.5 6.1-26 27.7-1.1-.5-2.6-30-13.4 14.1-6.5-6.1 26-27.7 1.1.5zm-44.2-3.7l22-19.7 5.9 6.4-22 19.8 7.4 8.3-6 5.2-20.6-23.5 6-5.2 7.3 8.7zm-4-52.2l-6.1 12.5 2.5 4.1 10-7.2 5 7-29.8 22-3.5-3.9c-1.2-1.3-2.5-2.9-3.6-4.6-1.9-2.5-3.1-4.5-3.6-6.6-.8-1.9-1.1-3.7-.9-5.4.2-1.7.8-3.3 1.6-4.6s2.1-2.5 3.4-3.6c1.9-1.5 3.8-2.3 6.1-2.5 2.3-.2 4.5.1 6.7 1.1l6.4-15.9 5.8 7.6zm-19.2 15.9c-1.5.9-2 2-1.9 3.5.1 1.5.5 2.9 1.4 4.3.4.6.7 1.2 1.2 1.3.2.3.8.7 1.2 1.3l8.2-6.2-1.4-2.3c-1.4-1.6-2.5-2.9-4.2-3-1.4-.4-3.2-.1-4.5 1.1zM183 733.8c4.4-2.7 8.6-3.6 12.4-2.7 3.8.9 7 3.7 9.7 8.1s3.4 8.3 2.5 12.1c-.9 3.8-3.4 6.9-8.1 9.7l-19 11.5-4.6-7.6 18.4-11.1c2.3-1.4 3.7-3.1 4.4-4.6s.5-3.9-.8-5.9c-1.2-2-2.7-3.2-4.9-3.4-1.7-.2-4.1.5-6.2 1.7l-18.4 11.1-4.6-7.6 19.2-11.3zm-13.3-35.9c1.2-.7 3-1 4.3-1.4 1.5-.1 2.9.2 4.3.6 1.6.6 2.9 1.5 4.3 2.6 1.2 1.3 2.5 2.9 3.3 4.8.5.9.8 1.9 1.2 3.3.4 1.3.7 2.4.9 3.5.2 1.1.2 2.3.4 3.3-.1 1.2 0 2 0 3.2l-8.3 1.4c.5-1.9.5-3.9.2-5.7-.3-1.8-.6-3.6-1.7-5.4-.7-1.2-1.4-2.3-2.4-2.6-.9-.2-1.7-.2-2.6.4l-1.2.7c-.3.2-.7.8-.6 1.6-.1.5-.3 1.4-.1 2.5-.2.9.2 2.3.3 3.8.3 1.8 0 3.2-.2 4.9-.3 1.4-.4 2.6-1.1 3.5-.5 1.1-1.2 1.9-1.9 2.8-.7.8-1.6 1.4-2.7 2.1s-2.5 1.1-3.7 1.1c-1.5.1-2.9-.2-4-.7-1.4-.3-2.9-1.5-4.1-2.7s-2.5-2.9-3.3-4.8c-.5-.9-.8-1.9-1.3-2.8-.2-1.1-.5-2.1-.5-2.9-.1-.8-.3-1.8-.4-2.6-.1-.8-.1-1.5.1-2.5l7.9-1.6c.1.8-.1 1.2-.3 2.2l.2 2.3.2 2.3c.1.8.4 1.3.8 1.9.9 1.5 1.4 2.3 2.4 2.6s1.7.2 2.5.1c.6-.4.9-.5 1.3-1.2.1-.5.5-1.1.6-1.6-.1-.8.1-1.2.1-2.5-.1-.8 0-2 0-3.2 0-2-.1-3.5.2-4.9s.4-2.6.9-3.8 1.2-1.9 1.9-2.8c0-.6.9-1.1 2.1-1.8zm-28.8-20.6l27.3-10.9 3.3 8-27.3 10.9 4.4 10.5-7.4 2.9-11.5-29 7.1-2.7c-.1.1 4.1 10.3 4.1 10.3zm19.9-32.4l-35.7 11.6-2.7-8.4 35.4-11.4c.1 0 3 8.2 3 8.2zm-13.7-52.4l-14.6 26.8 19.1-4.8 1.9 8.4-37 8.8-.5-.9 14.5-26.3-18.8 4.6-1.9-8.4 37-8.8.3.6zm-28.8-43.7l17.8-2.3c1.5 1.9 2.8 3.9 3.7 6.1.9 2.2 1.6 4.6 2.1 7.5.4 2.6.4 5.3-.4 7.9-.6 2.3-1.6 4.6-3.1 6.7-1.5 2.1-3.4 3.6-5.4 4.9-2 1.2-4.7 2.1-7.6 2.6-2.9.5-5.5.1-7.9-.4-2.5-.9-4.8-1.9-6.9-3.4s-3.6-3.4-4.8-5.9c-1.4-2.3-2.1-4.7-2.6-7.6-.4-2.6-.4-4.6-.1-6.7.3-2.2.7-4 1.5-6.1l7.6 2.6c-1 3-1.4 5.6-.9 8.5.3 1.8.9 3.5 1.3 4.8.7 1.2 1.9 2.5 2.7 3.2 1.3.8 2.4 1.3 3.8 1.7 1.4.3 2.9.2 4.5.1 1.8-.3 3.2-.7 4.6-1.6 1.5-.9 2.5-1.9 3.4-2.9.8-1.3 1.3-2.4 1.7-3.8s.2-2.9.1-4.5c-.1-1.5-.4-2.6-.7-3.2-.1-.8-.6-1.6-1.2-2l-5.4.9.9 7.4-7.4.9-1.3-15.4zM412.8 75.1l-14.3-34.9 22.1-9 2.9 7.4-14.1 5.7 2.5 6.1 12.8-5.3 3 7-12.8 5.3 2.8 6.7 14.1-5.7 2.9 7.4-21.9 9.3zm48.4-17.7l-1.1.2-28.5-30.7L441 24l14.2 17 1.9-21.9 9.4-2.9-5.3 41.2zm48.5-13l-4.2-6.3-12.6 2.9-1.3 7.2-8.7 2.1 9.3-40.8 1.1-.2 25.4 33.4-9 1.7zm-14-19.9l-1.8 9.5 7.4-1.7-5.6-7.8zm63.2 13.4L534 20.5l2.5 19.3-8.5 1.1-4.6-38 1.1-.2L549.4 20 546.9.7l8.5-1.1 4.6 38-1.1.3zm46.4-23.7l.5 18.1c-2 1.2-4.3 2.2-6.5 3.1-2.4.7-4.8 1.3-7.7 1.1-2.8.1-5.4-.3-7.9-1.2-2.5-.9-4.5-2.1-6.3-3.8-1.8-1.7-3.4-3.6-4.5-6.1-1.1-2.5-1.8-4.9-1.6-7.9-.1-2.8.3-5.4 1.2-7.9s2.4-4.6 4.3-6.2c1.9-1.5 3.7-3.1 6.3-4.2s5.1-1.5 7.9-1.6c2.5.1 4.9.2 6.8.7 1.9.5 3.9 1.2 5.9 2.4L600.3 8c-2.7-1.2-5.5-1.9-8.5-2.1-2 0-3.3.4-5 1-1.6.6-2.6 1.6-3.3 2.4-1 1-1.8 2.3-2.2 3.7-.3 1.4-.7 2.8-.6 4.3-.2 1.7.4 3.3 1 5 .4 1.3 1.6 2.6 2.6 3.6s2.3 1.8 3.7 2.2c1.4.3 2.8.7 4.3.6 1.5-.1 2.3-.2 3.3-.4.8-.1 1.6-.6 2.2-.9l-.1-5.5-7.5.1-.1-7.5 15.2-.3zm13.4 21.5l2.5-37.5L645-.2l-.4 7.9-15-.9-.4 6.6 13.7.9-.6 7.6-13.7-.9-.3 7.4 15 .9-.4 7.9-24.2-1.5zm37 3.1l5.4-37.3 8.7 1.1-4.2 29.4 14.9 2.2-1.2 7.9-23.6-3.3zm34.5 5.5l7.6-37 8.6 1.6-7.6 37-8.6-1.6zm47.8.3c-.3 1.4-1.2 2.7-2 4-.8 1.3-2 2-3.4 2.9-1.5.9-2.8 1.3-4.8 1.3-1.8.3-3.7-.2-6-.7-.9-.2-2.1-.8-3.2-1.3s-2.2-1-3.1-1.7-1.9-1.2-2.8-1.9c-.8-.7-1.6-1.4-2.2-2.3l4.5-7.1c1.2 1.3 2.5 2.9 4.3 3.8 1.5 1.1 3.2 2 5.1 2.5 1.4.3 2.6.4 3.5-.1.9-.5 1.3-1.2 1.5-2.1.1-.5.2-.9.1-1.2.1-.5-.2-1.1-.6-1.6-.4-.6-.7-1.2-1.5-1.9s-1.6-1.4-2.9-2.2c-1.5-1.1-2.5-2.1-3.5-3.1s-1.7-2.2-1.9-3.2l-.7-3.2s.3-2.2.3-3.4c.3-1.4.9-2.5 1.9-3.5 1-1 2-2 3.2-2.7 1.2-.7 3-1 4.5-1.1 1.8-.3 3.7.2 5.9.4.9.2 2.1.8 3 1 .9.2 1.8.9 2.6 1.6.6.4 1.5 1.1 2.1 1.5.6.4 1.2 1.3 1.6 1.4l-4.2 6.9c-.4-.6-1-1-1.4-1.6-.6-.4-1-1-1.6-1.4l-1.9-1.2c-.6-.4-1.3-.8-2.1-.8-1.4-.3-2.6-.4-3.5.1-.9.5-1.5.9-1.7 1.8-.1.5-.1 1.2-.2 1.7.2.3.2 1.1.9 1.5.4.6 1 1 1.8 1.7l2.5 2.1c1.5 1.1 2.6 2.4 3.6 3.4s1.7 2.2 1.9 3.2l.7 3.2c.2 1 .2 2.2-.3 3.3zm36.9 24.8l6.3-17.4-14.3 8.7-.9-.2-5.3-16-6.9 17-7.7-2.9 15-34.6 1.1.5 8.2 26.2 23.1-14 1.1.5-11.8 35.9-7.9-3.7zM1061 544.5l37.2 4.7-2.9 23.7-7.7-.9 1.7-15-6.5-.9-1.7 13.8-7.4-1.1 1.7-13.8-7.3-.8-1.7 15-7.7-.9 2.3-23.8zm1.1 62c-1.4-.3-2.8-.7-4.1-1.5-1.3-.8-2.3-1.8-3.2-3.3-.9-1.5-1.3-2.8-1.6-4.6s-.3-3.8.3-6.2c.2-.9.8-2.1 1-3 .5-1.1 1-2.2 1.3-3.2.5-1.1 1.2-1.9 1.7-3.1l2.1-2.5 7.2 4c-1.3 1.2-2.7 2.8-3.6 4.6s-1.6 3.3-2 5.2c-.3 1.4-.4 2.6.4 3.3.5.9 1.2 1.3 2.1 1.5.5.1.9.2 1.2.1.5.1 1.1-.2 1.5-.9.4-.6 1-1 1.7-1.8s1.4-1.6 2.2-2.9c1.1-1.5 1.9-2.8 2.9-3.8s2.2-1.7 3-2.2c.9-.5 1.9-.8 3.2-.7s2 0 3.2 0c1.4.3 2.5.9 3.8 1.7 1.3.8 2 2 2.7 3.2.7 1.2 1.3 2.8 1.6 4.6.3 1.8.3 3.8-.2 5.7-.2.9-.5 1.9-1 3-.2.9-.9 1.8-1.2 2.7-.4.6-.9 1.8-1.3 2.4-.4.6-.8 1.3-1.4 1.6l-7-3.7c.6-.4 1-1 1.4-1.6l1.2-1.9 1.2-1.9s.3-1.4.8-2.1c.3-1.4.2-2.9-.1-3.5-.5-.9-1.2-1.3-1.6-1.4-.5-.1-1.2-.1-1.5.1l-1.5.9s-1 1-1.7 1.8c-.4.6-1.1 1.5-1.9 2.8-1.1 1.5-2.2 2.9-3.2 3.9s-2.2 1.7-3 2.2-1.9.8-3.2.7c-.9-.1-2.1-.1-3.4-.2zm10.1 33.9l-28.6-8.3 2.6-8.3 28.6 8.3 3.1-10.7 7.7 2.1-8.6 30-7.7-2.1 2.9-11zm-43.6 34.3l7.5-.1 4.7-12-5.5-5.1 3.3-8.4 28.9 30-.5 1.1-41.8 2.9 3.4-8.4zm24.4-.7l-7-7-2.7 6.8 9.7.2zm-34.6 47.2c-1.3-.8-2.6-1.6-3.3-2.8-.7-1.2-1.6-2.6-1.9-4.4s-.1-3.5.2-5.7c.3-2.2 1.3-4.4 2.5-7.1.6-1.6 1.7-3.1 2.7-4.8.9-1.8 2-3.2 3-5l33.1 16.4c-.4.6-.3 1.4-.8 2.1s-.6 1.6-.9 2.5c-.2.9-.6 1.6-1.2 2.7-.2.9-.6 1.6-1 2.2-1.3 2.4-2.6 4.3-4 6-1.4 1.6-2.7 2.8-4.2 3.7s-2.8 1.3-4.3 1.4c-1.5.1-2.5-.1-3.8-.9-1.8-.9-2.9-2.2-3.8-3.7-.6-1.6-.9-3.5-.8-5.9-2 2-3.7 3.1-5.4 3.7-2.1.8-3.8.7-6.1-.4zm18.4-1.9c1.1.5 1.9.5 3.2 0 1.2-.7 2.2-1.7 2.8-3.3.4-.6.8-1.3.8-2.1.1-.5.5-1.1.5-1.9l-6.9-3.4c-.1.5-.4.6-.8 1.3-.1.5-.5 1.1-.9 1.8-.9 1.8-1.4 3.6-1.2 4.7.7 1.2 1.4 2.4 2.5 2.9zm-13.2-6c1.3.8 2.3.6 3.7.2 1.3-.4 2.3-2.2 3.5-4.1.5-1.1 1-2.2 1.3-3.2l-7.8-3.7c-.4.6-.5 1.1-.8 1.3s-.5 1.1-.9 1.8c-.9 1.8-1.4 3.6-1 5-.1 1.2.7 1.9 2 2.7zm-20.6 14.1l32.4 19.2-4.6 7.6-25.6-15.3-7.7 13-6.9-4.2 12.4-20.3zm-18.5 29.5l30.9 21.3-4.8 7.3-30.9-21.3 4.8-7.3zm-19 43.9c-1.3-.8-2-2-2.9-3.4-.7-1.2-1.3-2.8-1.4-4.3-.1-1.5 0-3.2.7-4.8.5-1.9 1.6-3.3 2.8-5.3l2.1-2.5c.7-.8 1.9-1.5 2.7-2.1l2.9-1.8c.9-.5 1.9-.8 2.8-1.3l4.8 6.7c-1.6.6-3.6 1.4-5.3 2.4-1.8 1.1-3 2.2-4.2 3.7-.8 1.3-1.3 2.4-1.3 3.2s.6 1.6 1.2 2c.5.1.6.4 1.1.5.5.1.9.2 1.7.2.8-.1 1.3-.4 2.4-.7.9-.5 2.2-.9 3.4-1.7 1.5-.9 3.1-1.5 4.4-1.9 1.3-.4 2.4-.7 3.6-.6 1.2.1 2.2.3 3.1.5 1.1.5 1.8.9 2.9 1.5 1 1 2 2 2.7 3.2s1.1 2.5 1.2 4c.1 1.5 0 3.2-.7 4.8-.6 1.6-1.6 3.3-2.8 5.3-.7.8-1.4 1.6-2.3 2.2-.7.8-1.6 1.4-2.5 1.9l-2.3 1.4c-.6.4-1.5.9-2.2.9l-4.8-6.7c.6-.4 1.3-.4 1.9-.8l4.1-2.5c.6-.4 1-1 1.6-1.4.8-1.3 1.3-2.4 1.3-3.2s-.6-1.6-.9-2.2c-.6-.4-1.1-.5-1.6-.6-.5-.1-1.2-.1-1.8.3-.6.4-1.3.4-2.2.9s-1.8 1.1-3.1 1.5c-1.8 1.1-3.1 1.5-4.4 1.9-1.3.4-2.7.8-3.6.6-1.2-.1-2.2-.3-3.1-.5.1.2-.8-.5-2-1.3zm-31.9 19.3l10.9 10.2 9.9-10.8-10.9-10.2 6.1-6.5 27.5 25.7-6.1 6.5-10.8-9.9-9.9 10.8 10.8 9.9-6.1 6.5-27.5-25.7 6.1-6.5zm-16.2 16.2l25.4 27.4-6.4 5.9-25.5-27.7 6.5-5.6zm-42.1 34.2l30.4 2-12.1-15.5 6.8-5.3 23.7 30-.7.8-29.9-1.9 12 15.1-6.8 5.3-23.7-30c-.1.1.3-.5.3-.5zM847.9 915l-9.5-15c1-2.2 2.3-4.2 4-6 1.7-1.8 3.6-3.4 5.7-5.1 2.3-1.4 4.9-2.5 7.3-3.2 2.6-.4 4.9-.5 7.5-.1 2.3.6 4.9 1.4 7 3 2.1 1.5 4.1 3.5 5.5 5.8 1.4 2.3 2.5 4.9 2.9 7.4.4 2.6.3 5-.3 7.4-.6 2.3-1.6 4.6-3.1 6.7-1.5 2.1-3.6 4.6-6.3 6.2-2 1.2-4.1 2.5-6.2 3s-4.2 1-6 1.3l-.8-7.9c3-.2 5.7-1.1 8.2-3 1.8-1.1 2.7-2.1 3.6-3.4.8-1.3 1.6-2.6 1.7-3.8.1-1.2.2-2.9-.2-4.3-.4-1.3-1-3-1.7-4.2-.9-1.5-2.1-2.7-3.4-3.6-1.3-.8-2.6-1.6-4-2-1.4-.3-2.6-.4-4 0-1.3.4-2.7.8-4.2 1.7-1.2.7-2 1.2-2.7 2.1-.4.6-1 1-1.4 1.6l2.8 4.7 6.3-4.2 4.7 6.4-13.4 8.5z"/></svg>