<svg xmlns="http://www.w3.org/2000/svg" viewBox="0 0 292.6 292.5" enable-background="new 0 0 292.6 292.5"><path fill="#73C4B0" d="M11.8 130.6l-4.4-6.1-5.5 5.1C6.9 82.7 34.5 41 75.8 17.9l7.6 1.1-2.7 7.7C42.2 48.2 16.5 87 11.8 130.6zM146.6 292.5c-27 0-53.4-7.4-76.2-21.5l-3-7.5 8.2-1.1c21.3 13.1 45.9 20 71 20 23.8 0 47.2-6.2 67.7-18l-1.7 6.5 6.6 2.2c-21.9 12.7-47.1 19.4-72.6 19.4zM292.6 146.5l-5.1 6.9-4.9-6.9c0-48.3-26-93.4-67.7-117.7l7-1.6-2-7c21.7 12.6 39.9 30.7 52.7 52.4 13.1 22.3 20 47.9 20 73.9z"/><g fill="#30323F"><path d="M95.5 21l-3.9-10.3 6.5-2.5.8 2.2-4.1 1.6.7 1.8 3.8-1.4.8 2.1-3.8 1.5.8 2 4.1-1.6.8 2.2-6.5 2.4zM114.5 15l-8-3.9 1.6 5.5-2.5.7-3-10.7.3-.2 7.9 3.9-1.5-5.5 2.5-.7 3 10.7-.3.2zM122.1 4.5l1.6 8.5-2.5.5-1.6-8.5-3.2.6-.4-2.3 9-1.6.4 2.3-3.3.5zM135.8 11.4L133.6 8h-1.4l.3 3.6-2.5.2L129 1l1.5-.3c.5-.1 1.1-.2 1.7-.2.9-.1 1.6-.1 2.2.1.6.1 1.1.3 1.5.6.4.3.7.7.9 1.1.2.4.3.9.4 1.4.1.7 0 1.3-.3 1.9s-.7 1.1-1.3 1.5l3 4-2.8.3zm-1.1-7.2c0-.5-.2-.8-.6-1-.4-.2-.8-.3-1.3-.3-.2 0-.4 0-.5.1-.1 0-.3.1-.5.1l.3 3h.8c.6-.1 1.1-.2 1.4-.6.3-.3.5-.8.4-1.3zM150.9 6.5c0 1.5-.4 2.7-1.2 3.5-.8.8-2 1.2-3.5 1.2s-2.6-.4-3.4-1.2c-.8-.8-1.2-1.9-1.2-3.5V0h2.6v6.3c0 .8.2 1.4.5 1.8s.9.7 1.6.7c.7 0 1.2-.2 1.6-.7.3-.4.5-1.1.5-1.8V0h2.6l-.1 6.5zM161.9 8.6c0 .4-.2.9-.3 1.3-.2.4-.5.7-.8 1-.4.3-.8.5-1.3.7-.5.1-1.1.2-1.7.1-.3 0-.6-.1-1-.2s-.7-.2-1-.3c-.3-.1-.6-.3-.9-.4-.3-.2-.5-.3-.8-.5L155 8c.4.4.9.7 1.4.9.5.2 1 .4 1.6.4.4 0 .8 0 1-.2s.3-.4.3-.7V8c0-.1-.1-.3-.3-.4-.1-.1-.3-.3-.6-.4-.2-.2-.6-.3-1-.5-.5-.2-.8-.5-1.2-.8-.3-.3-.6-.5-.7-.8-.2-.3-.3-.6-.4-.9s-.1-.6-.1-1 .1-.8.3-1.1c.2-.4.5-.7.8-.9.3-.3.8-.5 1.3-.6.5-.1 1.1-.2 1.7-.1.3 0 .6.1.9.1.3.1.6.2.8.3s.5.2.7.3c.2.1.4.2.6.4l-.8 2.2c-.2-.1-.3-.2-.5-.4l-.6-.3-.6-.3c-.2-.1-.4-.1-.6-.1-.5 0-.8 0-1 .2-.2.2-.3.4-.4.6 0 .2 0 .3.1.5.1.1.2.3.3.4.2.1.3.2.6.4.2.1.5.3.8.5.5.3.9.5 1.2.8.3.3.6.5.8.8.2.3.3.6.4.9.1.1.1.4.1.8zM171.4 4.5L170 13l-2.5-.4 1.4-8.5-3.3-.5.4-2.3 9 1.5-.4 2.2-3.2-.5zM176.5 14.4L179 3.7l2.5.6-2.5 10.6-2.5-.5zM191.7 18.9l-4.5-7.7-1.7 5.5-2.4-.8 3.4-10.6h.3l4.4 7.6 1.7-5.4 2.4.8-3.4 10.6h-.2zM207 18.3l-2.1 4.8c-.7.1-1.4.1-2.1 0-.7-.1-1.4-.3-2.2-.6-.7-.3-1.4-.7-1.9-1.3-.5-.5-.9-1.1-1.2-1.8-.3-.7-.4-1.4-.4-2.1s.2-1.5.5-2.3c.3-.8.8-1.4 1.3-1.9.6-.5 1.2-.9 1.9-1.2.7-.3 1.4-.4 2.2-.3.8 0 1.5.2 2.3.5.7.3 1.2.6 1.7 1s.9.8 1.3 1.3l-1.8 1.5c-.6-.7-1.2-1.2-2-1.5-.5-.2-1-.3-1.4-.4-.4 0-.9.1-1.2.2-.4.2-.7.4-1 .7-.3.3-.5.7-.7 1.1-.2.5-.3.9-.3 1.4s.1.9.2 1.3c.2.4.4.7.7 1 .3.3.7.5 1.1.7.4.2.7.3.9.3.2.1.5.1.7 0l.6-1.5-2-.9.9-2 4 2zM281 163.7l10.9 1.7-1.1 6.9-2.3-.4.7-4.4-1.9-.3-.6 4-2.2-.3.6-4-2.1-.3-.7 4.4-2.3-.4 1-6.9zM278.1 178.5l.1-.3 12-2.5-.7 2.8-6.4 1 5.2 3.8-.7 2.8-9.5-7.6zM274 192.6l2.2-.1 1.2-3.6-1.6-1.4.8-2.5 8.8 8.5-.1.3-12.2 1.3.9-2.5zm7.1-.5l-2.1-1.9-.7 2.1 2.8-.2zM268.2 205.9l8.1-3.6-5.2-2.3 1-2.3 10.2 4.6-.1.3-8.1 3.6 5.2 2.3-1 2.3-10.2-4.6.1-.3zM267.1 221.1l-4.6-2.6c0-.7.1-1.4.2-2.1.2-.7.4-1.4.9-2.1.4-.7.9-1.3 1.5-1.8s1.2-.8 1.9-1 1.4-.3 2.2-.2c.8.1 1.5.3 2.2.8.7.4 1.3.9 1.8 1.5s.8 1.3.9 2 .2 1.4.1 2.2c-.1.8-.4 1.5-.8 2.2-.4.6-.8 1.2-1.2 1.6-.4.4-.9.8-1.5 1.1l-1.3-1.9c.7-.5 1.3-1.1 1.8-1.8.3-.5.4-.9.5-1.4s0-.9-.1-1.2c-.1-.4-.3-.8-.6-1.1-.3-.3-.6-.6-1-.8-.4-.3-.9-.4-1.4-.5-.4-.1-.9 0-1.3.1s-.8.3-1.1.6-.6.6-.8 1c-.2.4-.3.6-.4.9-.1.2-.1.5-.1.7l1.4.8 1.1-1.9 1.9 1.1-2.2 3.8zM259.7 221.2l9 6.3-4 5.7-1.9-1.3 2.5-3.6-1.6-1.1-2.3 3.3-1.8-1.3 2.3-3.3-1.8-1.2-2.5 3.6-1.9-1.3 4-5.8zM253.3 230l8.5 7-1.6 2-6.7-5.5-2.8 3.4-1.8-1.5 4.4-5.4zM246.7 237.8l8.1 7.5-1.7 1.9-8.1-7.5 1.7-1.9zM239.4 249.7c-.3-.3-.5-.7-.7-1.1-.2-.4-.2-.8-.2-1.3s.1-.9.4-1.4c.2-.5.6-.9 1.1-1.4.2-.2.5-.4.8-.6.3-.2.6-.4.9-.5s.6-.3.9-.4c.3-.1.6-.2.9-.2l1.1 2.2c-.5.1-1.1.2-1.6.5-.5.2-1 .5-1.4.9-.3.3-.5.6-.5.9 0 .3.1.5.3.7.1.1.2.2.3.2.1.1.3.1.5.1s.4 0 .7-.1c.3-.1.6-.2 1-.4.5-.2.9-.3 1.3-.4.4-.1.8-.1 1.1 0l.9.3s.5.4.8.6c.3.3.5.6.6 1 .1.4.2.8.2 1.2 0 .4-.2.9-.4 1.3-.2.5-.6.9-1 1.4-.2.2-.5.4-.7.6-.2.2-.5.3-.8.4-.2.1-.5.2-.7.3-.2.1-.5.1-.6.2l-1.1-2.1c.2 0 .4-.1.6-.1.2-.1.4-.1.6-.2l.6-.3c.2-.1.4-.2.5-.4.3-.3.5-.6.5-.9s0-.5-.2-.7c-.1-.1-.3-.2-.4-.3-.1 0-.3-.1-.5 0-.2 0-.4.1-.7.2l-.9.3c-.5.2-1 .3-1.4.4-.4.1-.8.1-1.1 0l-.9-.3c-.3-.1-.6-.3-.8-.6zM227.6 255.2l3.4 4.2v-4.9l.2-.2 4.8 1.1-3.2-4.3 1.9-1.5 6.4 9-.3.2-7.8-1.9v7.9l-.3.2-7.2-8.4 2.1-1.4zM65.4 254.9l-6.8 8.6-5.5-4.3 1.4-1.8 3.5 2.7 1.2-1.5-3.2-2.5 1.4-1.7 3.2 2.5 1.3-1.7-3.5-2.7 1.4-1.8 5.6 4.2zM49.7 245.8c.3-.3.6-.6 1-.8.4-.2.8-.3 1.3-.3s.9.1 1.4.3c.5.2 1 .5 1.5 1 .2.2.4.5.6.7.2.3.4.6.6.8.2.3.3.6.5.9l.3.9-2.1 1.2c-.1-.5-.3-1.1-.6-1.6s-.6-.9-1-1.3c-.3-.3-.6-.5-.9-.4-.3 0-.5.1-.7.3-.1.1-.2.2-.2.3-.1.1-.1.3 0 .5s.1.4.2.7.2.6.4 1c.2.5.4.9.5 1.3.1.4.1.8.1 1.1 0 .3-.1.6-.3.9s-.3.5-.5.8c-.3.3-.6.5-1 .7-.4.2-.8.2-1.2.2-.4 0-.9-.1-1.4-.3s-1-.5-1.4-.9c-.2-.2-.4-.4-.6-.7-.2-.2-.3-.5-.5-.7-.1-.2-.3-.5-.4-.7s-.2-.4-.2-.6l2-1.2c0 .2.1.4.2.6l.3.6.3.6s.3.3.4.5c.3.3.7.5.9.5.3 0 .5-.1.6-.2.1-.1.2-.3.2-.4v-.5s-.1-.4-.2-.7c-.1-.2-.2-.5-.4-.9-.2-.5-.4-1-.5-1.4s-.1-.8-.1-1.1.1-.6.3-.9c.2-.2.4-.5.6-.8zM39.7 243.2l6.4-5.9 1.7 1.9-6.4 5.9 2.2 2.4-1.7 1.6-6.2-6.7 1.7-1.6 2.3 2.4zM37.7 227.1l-1.1 1.9 2.3 3 2.1-.6 1.6 2.1-11.9 2.7-.2-.3 5.6-10.9 1.6 2.1zm-3.5 6.2l2.8-.7-1.3-1.7-1.5 2.4zM27.6 217.5c.4-.2.8-.4 1.2-.4s.9 0 1.4.2.9.5 1.4.9c.5.4.9 1 1.4 1.7.3.4.5.9.8 1.4.3.5.5 1 .8 1.5l-9.1 5.8c-.1-.2-.3-.3-.4-.5s-.3-.4-.5-.6c-.2-.2-.3-.4-.5-.7-.2-.2-.3-.4-.4-.6-.4-.7-.7-1.3-.9-1.9-.2-.6-.3-1.1-.3-1.6s.1-.9.3-1.3c.2-.4.4-.6.8-.8.5-.3 1-.4 1.5-.4.5.1 1 .3 1.6.7-.2-.8-.2-1.4-.1-1.9.1-.7.4-1.1 1-1.5zm-2.3 4.9c-.3.2-.4.4-.5.8 0 .4.1.8.4 1.2.1.2.2.4.4.5.1.1.2.3.4.4l1.9-1.2c-.1-.1-.1-.2-.2-.4-.1-.1-.2-.3-.3-.5-.3-.5-.7-.9-1-1-.4 0-.8 0-1.1.2zm3.5-2.4c-.4.2-.5.5-.6.9s.2.9.5 1.5c.2.3.4.6.6.8l2.1-1.4c-.1-.2-.2-.3-.2-.4s-.2-.3-.3-.5c-.3-.5-.7-.9-1.1-1-.3-.2-.6-.1-1 .1zM28.4 212.7l-9.7 5.2-1.2-2.3 7.7-4.1-2.1-3.9 2.1-1.1 3.2 6.2zM23.8 203.6l-10 4.5-1.1-2.3 10-4.5 1.1 2.3zM15.7 192.2c.4-.2.8-.2 1.3-.2.4 0 .9.1 1.3.3.4.2.8.5 1.1.9.4.4.6.9.9 1.5l.3.9c.1.3.1.7.1 1v1c0 .3-.1.6-.1.9l-2.4.2c.1-.5.2-1.1.2-1.7 0-.6-.1-1.1-.3-1.6-.2-.4-.4-.7-.6-.8s-.5-.1-.7 0c-.1.1-.2.1-.3.2-.1.1-.2.2-.3.4-.1.2-.1.4-.2.7 0 .3-.1.7-.1 1.1 0 .5-.1 1-.2 1.4s-.2.7-.4 1c-.2.3-.4.5-.6.7-.3.2-.5.3-.8.5-.4.1-.8.2-1.2.2-.4 0-.8-.1-1.2-.3s-.8-.5-1.1-.9c-.3-.4-.6-.9-.9-1.5-.1-.3-.2-.6-.2-.9-.1-.3-.1-.6-.1-.9v-.8c0-.2 0-.5.1-.7l2.4-.2c0 .2-.1.4-.1.6v1.4c0 .2.1.4.1.6.2.4.4.7.6.8s.5.1.7.1c.2-.1.3-.2.4-.3s.2-.3.2-.5.1-.4.1-.7c0-.3 0-.6.1-1 0-.6.1-1 .2-1.4s.2-.8.4-1c.2-.3.4-.5.6-.7 0 0 .3-.1.7-.3zM15.7 181.3l-4.2 1.2 1.2 4.1 4.2-1.2.7 2.5-10.6 3-.7-2.5 4.1-1.2-1.2-4.1-4.1 1.2-.7-2.5 10.6-3 .7 2.5zM14.1 174.8L3.4 177l-.5-2.5 10.8-2.2.4 2.5zM11.9 159.1l-5.1 7.3 5.7-.7.3 2.5-11.1 1.4-.1-.3 5-7.2-5.6.7-.3-2.5 11.1-1.4.1.2zM4.9 145.5l5.2-.1c.4.6.7 1.2.9 1.9.2.7.3 1.4.4 2.2 0 .8-.1 1.6-.3 2.3-.3.7-.6 1.3-1.1 1.9-.5.5-1.1 1-1.8 1.3-.7.3-1.5.5-2.3.5-.8 0-1.6-.1-2.3-.4-.7-.3-1.3-.7-1.8-1.2s-.9-1.1-1.2-1.8-.6-1.6-.6-2.5c0-.7 0-1.4.2-2 .2-.6.4-1.2.6-1.7l2.1 1c-.4.8-.6 1.6-.5 2.5 0 .6.1 1 .3 1.4.2.4.4.8.7 1s.7.5 1.1.6c.4.1.9.2 1.3.2.5 0 1-.1 1.4-.3.4-.2.8-.4 1.1-.7.3-.3.5-.6.6-1 .1-.4.2-.8.2-1.3 0-.4 0-.7-.1-1-.1-.2-.1-.4-.2-.6H7.2l.1 2.2-2.3.2-.1-4.6z"/></g></svg>