<svg xmlns="http://www.w3.org/2000/svg" viewBox="-524 526 1200 1200" enable-background="new -524 526 1200 1200" height="150" width="150" class="db mbs mhc">
    <path fill="#C63136" d="M76 526c-331.2 0-600 268.8-600 600s268.8 600 600 600 600-268.8 600-600S407.2 526 76 526z"/>
    <path fill="#A52029" d="M675.2 1146L229.6 701.2l-39.2 189.6L27.2 727.6 12 774l-46.4-46.4-13.6 49.6-49.6-49.6-10.4-4v152.8l43.2 57.6v520l-13.6 56.8 212 212c296.8-28 532-273.6 541.6-576.8z"/>
    <g fill="#fff">
        <path d="M32.8 739.6c0-8.8-7.2-16-16-16s-16 7.2-16 16V834c0 8.8-7.2 16-16 16s-16-7.2-16-16v-96c0-8.8-7.2-16-16-16s-16 7.2-16 16v96c0 8.8-7.2 16-16 16s-16-7.2-16-16v-94.4c0-8.8-7.2-16-16-16s-16 7.2-16 16v143.2c0 66.4 48 61.6 48 143.2v245.6c0 43.2-16 128-16 128v80c0 26.4 21.6 48 48 48s48-21.6 48-48v-80c0-56-16-84.8-16-128V1026c0-82.4 44-76.8 44-143.2V739.6h4zM241.6 1273.2V731.6c0-30.4-16-36.8-32-32-16.8 4.8-63.2 63.2-63.2 239.2 0 79.2 32 103.2 32 159.2v174.4c0 41.6-16 127.2-16 127.2v80c0 26.4 21.6 48 48 48s48-21.6 48-48c0 0-.8-22.4-.8-78.4s-16-84.8-16-128z"/>
    </g>
</svg>
