<svg xmlns="http://www.w3.org/2000/svg" viewBox="0 0 671.6 335.9" enable-background="new 0 0 671.6 335.9">
    <g opacity=".05">
        <path d="M83.1 3.6h-38v328.8h38c44.7 0 68.9-8.9 81.9-34 12.5-25 14.3-65.8 14.3-130.2 0-64.4-1.8-105.6-14.3-130.6-13-25.1-37.2-34-81.9-34zM93.4 284V51.9c16.5 0 25.9 1.8 30.9 17.4 2.2 8.1 4 19.7 4.5 34.9.4 15.7.4 36.7.4 63.5 0 26.8 0 47.9-.4 63.5-.4 15.7-2.2 27.3-4.5 34.9-5 16.1-14.4 17.9-30.9 17.9zM309.8 11.2C300.9 4.5 288.8 0 272.7 0s-28.6 4.5-37.6 11.2c-8.9 6.7-14.8 15.7-18.8 24.6-4.9 10.3-7.6 22.4-8.1 35.3v193.7c.4 13.4 3.1 25.5 8.1 35.8 4 8.9 9.8 17.4 18.8 24.2 8.9 7.2 21.5 11.2 37.6 11.2s28.2-4 37.1-11.2c8.9-6.7 15.2-15.2 19.2-24.2 4.9-10.3 7.6-22.4 8.1-35.8v-45.2H292v45.2c0 4.9-.4 8.9-1.8 12.1-2.2 6.7-6.3 12.1-16.6 12.1-4 0-7.2-1.3-9.4-3.6-4.5-4.9-7.2-11.2-7.6-20.6V71.1c.4-4.5.9-8.5 2.2-12.1 2.2-5.8 6.3-12.1 14.8-12.1 4.9 0 8.9 1.3 11.2 3.6 4.9 5.4 7.2 11.6 7.2 20.6v45.2h45.2V71.1c-.4-13-3.1-25-8.1-35.3-4-9-10.3-17.9-19.3-24.6zM366.2 332.3h48.3V189.2h44.7v-49.6h-44.7V53.2h66.7V3.6h-115zM626.5 121.7V71.1c-.4-13-3.1-25-8.1-35.3-4-8.9-10.3-17.9-19.2-24.6-8.9-6.7-21-11.2-37.1-11.2s-28.6 4.5-37.6 11.2c-8.9 6.7-14.8 15.7-18.8 24.6-4.9 10.3-7.6 22.4-8.1 35.3v193.7c-.4 13.4 1.3 25.5 5.4 35.8 3.6 8.9 8.9 17.4 17 24.2 8.1 7.2 18.8 11.2 34.4 11.2 15.7 0 28.6-8.1 37.6-19.2l5.8 15.7h28.6V168.6H559v40.7h19.2v59.5c0 4.9-.4 8.9-1.8 12.1-1.8 6.7-5.8 12.1-14.3 12.1-4 0-7.2-1.3-9.4-3.6-4.5-4.9-6.7-11.2-6.7-20.6V71.1c0-4.5.4-8.5 1.8-12.1 1.8-5.8 5.8-12.1 14.3-12.1 4 0 7.6 1.3 9.8 3.6 4.5 5.4 6.3 11.6 6.3 20.6v50.5h48.3z"/>
    </g>
    <path fill="#C83131" d="M281.4 16.8h4.8v302.4h-4.8zM283.8 101.5h387.8v4.8H283.8z"/>
    <g fill="#313240">
        <path d="M347.1 165v11.8h18.3v10.8h-18.3v19.3h-12.4v-53.3h33.7V165h-21.3zM394.9 206.9v-53.3h12.4v53.3h-12.4zM437.4 206.9v-53.3h33.7V165h-21.4v9.5h19.5v10.8h-19.5v10.4h21.4V207h-33.7zM500.3 206.9v-53.3h12.4v42H534v11.3h-33.7zM607.5 179.8c0 3.9-.6 7.6-1.9 10.9s-3.2 6.3-5.8 8.7c-2.6 2.4-5.9 4.4-9.9 5.8-4 1.4-8.8 2.1-14.3 2.1h-4.3c-1.3 0-2.5-.1-3.8-.1-1.2-.1-2.5-.2-3.8-.3-1.3-.1-2.8-.3-4.4-.4v-52.4c3.1-.3 5.8-.6 8.2-.7 2.4-.1 4.9-.2 7.6-.2 5.5 0 10.3.7 14.4 2 4.1 1.4 7.4 3.2 10.1 5.6s4.7 5.2 6 8.4c1.3 3.3 1.9 6.8 1.9 10.6zm-13.1 0c0-4.8-1.5-8.6-4.5-11.4-3-2.7-7.4-4.1-13.1-4.1-1.1 0-1.9 0-2.6.1-.7 0-1.5.1-2.5.2V196c.6 0 1.1.1 1.5.1.4 0 .8.1 1.3.1H577.6c2.9 0 5.4-.4 7.5-1.2 2.1-.8 3.9-1.9 5.2-3.3 1.4-1.5 2.4-3.2 3.1-5.2.7-2 1-4.2 1-6.7zM380 254.8v25.5c-3 1.7-6.1 3-9.3 4-3.2.9-6.9 1.4-10.9 1.4-3.9 0-7.6-.7-11-2-3.4-1.3-6.4-3.2-8.9-5.6-2.5-2.4-4.5-5.3-6-8.7-1.5-3.4-2.2-7.1-2.2-11.2s.7-7.8 2.2-11.2c1.5-3.4 3.5-6.3 6.1-8.7 2.6-2.4 5.6-4.3 9.1-5.6 3.5-1.3 7.2-2 11.3-2 3.5 0 6.7.4 9.6 1.2 2.9.8 5.7 1.9 8.3 3.3l-5.2 10c-3.8-2-7.8-3-11.9-3-2.7 0-5 .4-7 1.2-2 .8-3.7 1.9-5.1 3.3-1.4 1.4-2.4 3.1-3.1 5.1-.7 2-1.1 4.1-1.1 6.4 0 2.5.4 4.8 1.2 6.9.8 2.1 1.9 3.8 3.3 5.2 1.4 1.4 3.1 2.5 4.9 3.3 1.9.8 3.9 1.2 6.1 1.2 2 0 3.6-.1 4.7-.3 1.1-.2 2.2-.6 3.2-1.1v-7.9h-10.7V255H380zM452.7 263.1c0 7.4-2 13-6 16.8-4 3.8-9.6 5.7-16.8 5.7-7.2 0-12.8-1.9-16.6-5.7-3.8-3.8-5.7-9.4-5.7-16.9v-31.6H420v30.8c0 3.8.8 6.8 2.5 8.9 1.6 2.2 4.2 3.2 7.8 3.2 3.5 0 6.1-1.1 7.7-3.2 1.6-2.2 2.5-5.1 2.5-8.9v-30.8h12.4v31.7zM482.1 284.8v-53.3h12.4v53.3h-12.4zM572.9 257.7c0 3.9-.6 7.6-1.9 10.9-1.3 3.4-3.2 6.3-5.8 8.7-2.6 2.4-5.9 4.4-9.9 5.8-4 1.4-8.8 2.1-14.3 2.1h-4.3c-1.3 0-2.5-.1-3.8-.1-1.2-.1-2.5-.2-3.8-.3-1.3-.1-2.8-.3-4.4-.4V232c3.1-.3 5.8-.6 8.2-.7 2.4-.1 4.9-.2 7.6-.2 5.5 0 10.3.7 14.4 2 4.1 1.4 7.4 3.2 10.1 5.6s4.7 5.2 6 8.4c1.2 3.3 1.9 6.8 1.9 10.6zm-13.2 0c0-4.8-1.5-8.6-4.5-11.4-3-2.7-7.4-4.1-13.1-4.1-1.1 0-1.9 0-2.6.1-.7 0-1.5.1-2.5.2v31.4c.6 0 1.1.1 1.5.1.4 0 .8.1 1.3.1H542.9c2.9 0 5.4-.4 7.5-1.2 2.1-.8 3.9-1.9 5.2-3.3 1.4-1.5 2.4-3.2 3.1-5.2.7-2 1-4.2 1-6.7zM600.9 284.8v-53.3h33.7v11.3h-21.4v9.5h19.5v10.8h-19.5v10.4h21.4v11.3h-33.7z"/>
    </g>
    <g fill="#313240">
        <path d="M235.2 144h-87.4l77.5-77.5v52h10.1V49.1h-69.6v10.2h52.3l-77.5 77.5V48.9h-10.2v105.2h104.8zM0 189.9h88.1l-77.5 77.5V215H.5v69.7h69.4v-10.2H17.8L95.3 197v87.6h10.2V179.7H0zM95.3 136.8L17.8 59.3h52.1V49.1H.5v69.4h10.1v-52L88.1 144H0v10.1h105.5V48.9H95.3zM225.3 215v52.4l-77.5-77.5h87.4v-10.2H130.4v104.9h10.2V197l77.5 77.5h-52.3v10.2h69.6V215z"/>
    </g>
    <g fill="#313240">
        <path d="M339.4 64.5c-1.8 0-2.8-.1-4.7-.2v-15c1.8-.2 3-.2 4.5-.2 6.3 0 9.3 3.3 9.3 7.6 0 4.4-2.8 7.8-9.1 7.8zm.3-12.3c-.6 0-.9 0-1.5.1v9c.6.1.9.1 1.7.1 3.3 0 4.8-1.9 4.8-4.7.1-2.8-1.7-4.5-5-4.5zM355.6 64.4V49.1h3.5v15.3h-3.5zM371 64.6c-1.7 0-3.8-.7-5.1-1.6l1-3.2c1.2.9 2.8 1.5 4.3 1.5 1.2 0 1.7-.6 1.7-1.3 0-.8-.4-1.3-2.7-2.3-2.7-1.1-3.6-2.6-3.6-4.5 0-2.2 1.8-4.4 5.4-4.4 1.7 0 3.4.6 4.3 1.2l-.9 3.2c-.9-.6-2.3-1.2-3.4-1.2-1.3 0-1.8.6-1.8 1.2 0 1 .8 1.3 2.7 2.1 2.9 1.2 3.7 2.6 3.7 4.5-.2 2.5-1.9 4.8-5.6 4.8zM390.3 52.4v12h-3.5v-12h-4.6v-3.2h12.7v3.2h-4.6zM409.2 64.4l-2.6-5h-1.9v5h-3.5V49.3c1.3-.1 2.7-.2 4.5-.2 4.7 0 6.6 2.3 6.6 5.1 0 1.8-1 3.4-2.6 4.4l3.6 5.9h-4.1zm-3.1-12.2c-.5 0-.9 0-1.4.1v4.2c.5 0 .7.1 1.1.1 1.7 0 2.8-.8 2.8-2.4 0-1.3-1-2-2.5-2zM419.6 64.4V49.1h3.5v15.3h-3.5zM435.4 64.5c-1.3 0-3.1-.1-4.6-.3V49.3c1.1-.2 3-.3 4.3-.3 4.4 0 6.7 2 6.7 4.1 0 1.6-.9 2.7-2.6 3.4 2.1.6 3.1 1.8 3.1 3.6-.1 2.3-2.4 4.4-6.9 4.4zm.4-12.4c-.6 0-1.1.1-1.6.1v3.2c.4 0 .7.1 1.3.1 1.7 0 2.6-.6 2.6-1.7 0-1-.8-1.7-2.3-1.7zm-.2 5.8c-.5 0-1 0-1.3.1v3.5c.5 0 .8.1 1.5.1 1.8 0 2.6-.7 2.6-1.8 0-1.3-1-1.9-2.8-1.9zM455.4 64.6c-4.1 0-6.4-2.2-6.4-6.5V49h3.5v8.8c0 2.2.9 3.5 2.9 3.5s2.9-1.3 2.9-3.5V49h3.5v9.1c.1 4.3-2.3 6.5-6.4 6.5zM476.2 52.4v12h-3.5v-12h-4.6v-3.2h12.7v3.2h-4.6zM487.1 64.4V49.1h9.7v3.2h-6.1V55h5.6v3.1h-5.6v3h6.1v3.2h-9.7zM508.9 64.5c-1.8 0-2.8-.1-4.7-.2v-15c1.8-.2 3-.2 4.5-.2 6.3 0 9.3 3.3 9.3 7.6 0 4.4-2.8 7.8-9.1 7.8zm.3-12.3c-.6 0-.9 0-1.5.1v9c.6.1.9.1 1.7.1 3.3 0 4.8-1.9 4.8-4.7.1-2.8-1.7-4.5-5-4.5zM534 64.2c-4.5 0-7.8-3.2-7.8-7.5s3.3-7.6 7.8-7.6c1.9 0 3.7.7 4.8 1.4l-.7 1.4c-1.2-.7-2.9-1.3-4.3-1.3-3.7 0-5.9 2.6-5.9 6.1 0 3.5 2.3 6 6 6 1.4 0 3.1-.5 4.3-1.3l.5 1.4c-1 .8-2.8 1.4-4.7 1.4zM556.3 64v-6.7h-7.8V64h-1.6V49.4h1.6v6.5h7.8v-6.5h1.6V64h-1.6zM572.6 64.2c-3.4 0-5.5-2-5.5-5.5v-9.4h1.6v9.3c0 2.9 1.6 4.2 3.9 4.2s3.9-1.3 3.9-4.2v-9.3h1.6v9.4c.1 3.4-2.2 5.5-5.5 5.5zM595.6 64l-3.9-5.8H589V64h-1.6V49.5c1.1-.1 2.2-.2 3.4-.2 3.8 0 5.6 1.9 5.6 4.4 0 2-1.1 3.6-3.2 4.2l4.2 6.1h-1.8zM591 50.7c-.7 0-1.5 0-2 .2v5.9c.5.1 1.2.1 1.8.1 2.7 0 3.9-1.3 3.9-3.2 0-1.7-1.3-3-3.7-3zM612.2 64.2c-4.5 0-7.8-3.2-7.8-7.5s3.3-7.6 7.8-7.6c1.9 0 3.7.7 4.8 1.4l-.7 1.4c-1.2-.7-2.9-1.3-4.3-1.3-3.7 0-5.9 2.6-5.9 6.1 0 3.5 2.3 6 6 6 1.4 0 3.1-.5 4.3-1.3l.5 1.4c-1 .8-2.7 1.4-4.7 1.4zM634.5 64v-6.7h-7.8V64h-1.6V49.4h1.6v6.5h7.8v-6.5h1.6V64h-1.6z"/>
    </g>
</svg>
