<svg xmlns="http://www.w3.org/2000/svg" viewBox="0 0 644.6 228.3" enable-background="new 0 0 644.6 228.3">
    <g fill="#C83131">
        <path d="M45.8 43.1h20.9v142.1H45.8V43.1zM106.1 185.2l21.5-142.1h25.5l21.5 142.1h-20.3l-3.9-29h-20.1l-3.9 29h-20.3zm35.4-95.9l-.6-3.7h-1.2l-.6 3.7-6 44.8h14.3l-5.9-44.8zM218.8 185.2l-13.3-89.3-.8-6h-1.2v95.3h-19.3V43.1h25.5l12.4 64.9 1 7.5h.4l1-7.5 12.4-64.9h25.5v142.1h-19.3V89.9h-1.2l-.8 6-13.3 89.3h-9z"/>
    </g>
    <g fill="#313240">
        <path d="M409.7 63.9c0 4.8-1.3 8.4-3.9 10.9-2.6 2.5-6.2 3.7-10.9 3.7s-8.2-1.2-10.7-3.7c-2.5-2.4-3.7-6.1-3.7-10.9V43.4h8v19.9c0 2.4.5 4.4 1.6 5.8 1.1 1.4 2.7 2.1 5 2.1s3.9-.7 5-2.1c1.1-1.4 1.6-3.3 1.6-5.8V43.4h8v20.5zM444 67.7c0 1.4-.3 2.7-.8 4-.5 1.3-1.3 2.4-2.3 3.4-1 1-2.3 1.8-3.8 2.4-1.5.6-3.3.9-5.4.9-1 0-2-.1-3-.3-1.1-.2-2.1-.4-3.1-.8-1-.3-2-.7-2.9-1.1-.9-.4-1.8-.9-2.5-1.4l2.2-7.2c1.4 1 3 1.8 4.7 2.4 1.7.6 3.4.9 5 .9 1.4 0 2.4-.3 3-.9.6-.6.9-1.3.9-2.1 0-.4-.1-.9-.2-1.2-.1-.4-.4-.8-.9-1.2-.5-.4-1.1-.8-1.9-1.2-.8-.4-1.9-.9-3.2-1.4-1.5-.6-2.8-1.3-3.8-2s-1.9-1.5-2.5-2.4c-.6-.8-1.1-1.7-1.4-2.7-.3-1-.4-1.9-.4-3 0-1.3.3-2.5.8-3.7.5-1.2 1.3-2.3 2.3-3.2 1-.9 2.3-1.7 3.8-2.2 1.5-.6 3.3-.8 5.3-.8.9 0 1.9.1 2.8.2l2.7.6c.8.2 1.6.5 2.4.8.7.3 1.3.6 1.8 1l-2 7.2c-.5-.3-1.1-.7-1.7-1s-1.3-.6-2-.9c-.7-.3-1.3-.5-2-.7-.7-.2-1.3-.3-2-.3-1.5 0-2.5.3-3.2.8-.6.6-.9 1.2-.9 1.9 0 .6.1 1.1.3 1.5.2.4.6.8 1.1 1.1.5.3 1.1.7 1.9 1 .8.3 1.7.8 2.8 1.2 1.6.7 2.9 1.4 4 2.1 1.1.7 1.9 1.5 2.6 2.4.6.8 1.1 1.7 1.4 2.7-.1 1.1.1 2.1.1 3.2zM461.8 75.5c0 .8-.2 1.7-.5 2.6-.3.9-.8 1.7-1.4 2.6-.6.8-1.3 1.6-2 2.2-.8.7-1.6 1.2-2.5 1.6l-.7-1c1-.9 1.8-1.7 2.3-2.4.5-.8.9-1.6 1.2-2.7-1.2-.1-2.1-.4-2.8-1.2-.7-.7-1-1.6-1-2.6s.3-1.8 1-2.5 1.5-1 2.5-1c1.3 0 2.3.4 2.9 1.3.7.8 1 1.9 1 3.1z"/>
    </g>
    <g fill="#C83131">
        <path d="M497.7 50.8v7.6h11.9v7h-11.9v12.5h-8V43.4h21.8v7.3h-13.8zM556.7 60.7c0 2.5-.4 4.9-1.3 7.1-.9 2.2-2.1 4-3.6 5.6-1.6 1.6-3.4 2.8-5.6 3.7-2.2.9-4.6 1.4-7.3 1.4s-5.1-.5-7.2-1.4c-2.2-.9-4-2.2-5.5-3.7-1.5-1.6-2.7-3.5-3.5-5.6-.8-2.2-1.2-4.5-1.2-7.1 0-2.5.4-4.9 1.3-7.1.9-2.2 2.1-4.1 3.6-5.6 1.6-1.6 3.4-2.8 5.6-3.7 2.2-.9 4.6-1.4 7.3-1.4s5.1.5 7.2 1.4c2.1.9 4 2.2 5.5 3.7 1.5 1.6 2.7 3.5 3.5 5.6.8 2.2 1.2 4.5 1.2 7.1zm-8.6 0c0-1.6-.2-3-.7-4.3-.4-1.3-1.1-2.4-1.9-3.4-.8-.9-1.8-1.7-2.9-2.2-1.1-.5-2.4-.8-3.7-.8-1.3 0-2.6.3-3.7.8s-2.1 1.3-2.9 2.2c-.8.9-1.4 2.1-1.9 3.4s-.7 2.7-.7 4.3c0 1.5.2 3 .7 4.3s1.1 2.4 1.9 3.4c.8 1 1.8 1.7 2.9 2.2s2.4.8 3.7.8c1.4 0 2.6-.3 3.7-.8s2.1-1.3 2.9-2.2c.8-1 1.4-2.1 1.9-3.4.5-1.4.7-2.8.7-4.3zM587.2 77.9l-5.9-11.2h-2.9c-.4 0-.9 0-1.5-.1v11.3h-8V43.8c1.5-.2 3-.3 4.7-.4 1.6-.1 3.5-.2 5.5-.2 2.7 0 5 .3 6.9.9 1.9.6 3.4 1.4 4.6 2.4 1.2 1 2.1 2.3 2.6 3.6.5 1.4.8 2.9.8 4.4 0 2.1-.5 4-1.6 5.7-1 1.7-2.5 3.2-4.4 4.3l8.1 13.3h-8.9zm-1.5-23c0-1.4-.5-2.6-1.6-3.4-1-.8-2.4-1.2-4.1-1.2h-1.6c-.4 0-.9.1-1.5.2V60c.5.1 1 .1 1.3.1h1.2c1.9 0 3.4-.4 4.6-1.3 1.2-.8 1.7-2.1 1.7-3.9zM398.8 104.7v27.1h-8v-27.1h-10.4v-7.3h28.7v7.3h-10.3zM441.3 131.8V118H428v13.8h-8V97.4h8v13.5h13.3V97.4h8v34.5h-8zM462.7 131.8V97.4h21.8v7.3h-13.8v6.2h12.6v7h-12.6v6.7h13.8v7.3h-21.8zM525.5 131.8l-.4-16.9-9.5 12.1h-.8l-9.6-12.1-.3 16.9H497l1.6-34.7 1.1-.1 15.6 19.7L530.5 97l1.1.1 1.6 34.7h-7.7zM553.2 129.4c0 .8-.2 1.7-.5 2.6-.3.9-.8 1.7-1.4 2.6-.6.8-1.3 1.6-2 2.2-.8.7-1.6 1.2-2.5 1.6l-.7-1c1-.9 1.8-1.7 2.3-2.4.5-.8.9-1.6 1.2-2.7-1.2-.1-2.1-.4-2.8-1.2-.7-.7-1-1.6-1-2.6s.3-1.8 1-2.5 1.5-1 2.5-1c1.3 0 2.3.4 2.9 1.3.7.9 1 1.9 1 3.1z"/>
    </g>
    <g fill="#313240">
        <path d="M398.8 158.6v27.1h-8v-27.1h-10.4v-7.3h28.7v7.3h-10.3zM441.3 185.8V172H428v13.8h-8v-34.5h8v13.5h13.3v-13.5h8v34.5h-8zM462.7 185.8v-34.5h21.8v7.3h-13.8v6.2h12.6v7h-12.6v6.7h13.8v7.3h-21.8zM515.7 185.8l-5.9-11.2h-2.9c-.4 0-.9 0-1.5-.1v11.3h-8v-34.2c1.5-.2 3-.3 4.7-.4 1.6-.1 3.5-.2 5.5-.2 2.7 0 5 .3 6.9.9 1.9.6 3.4 1.4 4.6 2.4 1.2 1 2.1 2.3 2.6 3.6.5 1.4.8 2.9.8 4.4 0 2.1-.5 4-1.6 5.7-1 1.7-2.5 3.2-4.4 4.3l8.1 13.3h-8.9zm-1.4-23c0-1.4-.5-2.6-1.6-3.4-1-.8-2.4-1.2-4.1-1.2H507c-.4 0-.9.1-1.5.2v9.5c.5.1 1 .1 1.3.1h1.2c1.9 0 3.4-.4 4.6-1.3 1.1-.8 1.7-2.2 1.7-3.9zM534.9 185.8v-34.5h21.8v7.3h-13.8v6.2h12.6v7h-12.6v6.7h13.8v7.3h-21.8z"/>
    </g>
    <path d="M644.6 228.3V0H0v228.3h644.6zm-6.5-6.5H325.2v-75.9c15.9-1.8 28.3-15.3 28.3-31.7s-12.4-29.9-28.3-31.7v-76h312.9v215.3zM325.2 89c12.3 1.8 21.8 12.4 21.8 25.1s-9.5 23.4-21.8 25.1c-1.2.2-2.4.3-3.6.3s-2.4-.1-3.6-.3c-12.3-1.8-21.8-12.4-21.8-25.1S305.7 90.8 318 89c1.2-.2 2.4-.3 3.6-.3s2.4.1 3.6.3zM318 6.5v75.9c-15.9 1.8-28.3 15.3-28.3 31.7s12.4 29.9 28.3 31.7v75.9H6.5V6.5H318z" opacity=".05"/>
    <g fill="#313240">
        <path d="M309.5 103.3h24.2v7.2h-24.2zM309.5 117.8h24.2v7.2h-24.2z"/>
    </g>
</svg>
