<svg xmlns="http://www.w3.org/2000/svg" viewBox="0 0 386.5 309.9" enable-background="new 0 0 386.5 309.9"><circle fill="#73C4B0" cx="353.6" cy="139.3" r="16.3"/><circle fill="#30323F" cx="331.2" cy="107.4" r="16.3"/><circle fill="#30323F" cx="315" cy="143" r="16.3"/><circle fill="#73C4B0" cx="254.3" cy="272.5" r="16.3"/><circle fill="#30323F" cx="236.6" cy="233.2" r="16.3"/><circle fill="#30323F" cx="244.6" cy="36.9" r="16.3"/><circle fill="#30323F" cx="197.1" cy="213.9" r="16.3"/><circle fill="#30323F" cx="254.4" cy="116.2" r="16.3"/><circle fill="#30323F" cx="212.8" cy="139.7" r="16.3"/><circle fill="#30323F" cx="271.6" cy="178.6" r="16.3"/><circle fill="#30323F" cx="321.4" cy="214.8" r="16.3"/><circle fill="#30323F" cx="312" cy="49.4" r="16.3"/><circle fill="#30323F" cx="206.3" cy="71.2" r="16.3"/><path fill="#30323F" d="M333.6 183.2c-4.3 0-8.6-.5-12.7-1.5l1.2-4.9c3.8.9 7.6 1.4 11.5 1.4h.2v5h-.2zm12.9-1.6l-1.2-4.9c3.8-.9 7.4-2.3 10.8-4.2l2.3 4.4c-3.7 2.1-7.7 3.6-11.9 4.7zm-37.6-4.5c-3.8-2-7.3-4.4-10.5-7.3l3.3-3.7c2.9 2.6 6.1 4.8 9.6 6.6l-2.4 4.4zm60.1-7.4l-3.3-3.7c2.9-2.6 5.5-5.5 7.7-8.7l4.1 2.8c-2.4 3.5-5.3 6.7-8.5 9.6zm-79.2-9.5c-2.4-3.5-4.5-7.3-6-11.3l4.7-1.8c1.4 3.6 3.2 7.1 5.4 10.3l-4.1 2.8zm93.6-11.5l-4.7-1.8c1.4-3.6 2.3-7.4 2.7-11.3l5 .6c-.4 4.3-1.5 8.5-3 12.5zm-102.6-12.3c-.3-2.1-.4-4.3-.4-6.5 0-2.1.1-4.3.4-6.3l5 .6c-.2 1.9-.3 3.8-.3 5.8s.1 3.9.4 5.9l-5.1.5zM381.4 124c-.5-3.9-1.4-7.6-2.8-11.3l4.7-1.8c1.5 4 2.6 8.2 3.1 12.4l-5 .7zm-92.9-11.1l-4.7-1.8c1.5-4 3.5-7.8 6-11.4l4.1 2.8c-2.2 3.3-4 6.8-5.4 10.4zm84.7-10.4c-2.2-3.2-4.8-6.1-7.7-8.7l3.3-3.7c3.2 2.8 6.1 6.1 8.5 9.6l-4.1 2.8zm-71.6-8.6l-3.3-3.7c3.2-2.8 6.7-5.3 10.5-7.3l2.3 4.4c-3.4 1.8-6.6 4-9.5 6.6zm54.3-6.7c-3.4-1.8-7.1-3.2-10.9-4.1l1.2-4.9c4.2 1 8.2 2.5 12 4.5l-2.3 4.5zm-33.9-4l-1.2-4.9c4.1-1 8.4-1.5 12.7-1.6v5c-3.9.1-7.8.5-11.5 1.5zM246.8 309.9c-4.2-.6-8.3-1.8-12.2-3.6l2.1-4.5c3.4 1.6 7 2.6 10.8 3.1l-.7 5zm12.6-.1l-.7-4.9c3.7-.6 7.4-1.6 10.8-3.2l2.1 4.5c-3.9 1.8-7.9 3-12.2 3.6zM224 299.4c-1.4-1.3-2.8-2.6-4.1-4.1l-4.3-4.9 3.8-3.3 4.3 4.9c1.1 1.3 2.3 2.5 3.6 3.6l-3.3 3.8zm58.2-.2l-3.3-3.7c2.8-2.5 5.3-5.4 7.3-8.6l4.2 2.6c-2.3 3.6-5 6.9-8.2 9.7zm-74.6-17.8l-7.9-9 3.8-3.3 7.9 9-3.8 3.3zm87.9-3.5l-4.8-1.3c.9-3.4 1.4-6.9 1.4-10.4v-.7l5-.1v.8c0 3.9-.6 7.9-1.6 11.7zm-103.8-14.5l-7.9-9 3.8-3.3 7.9 9-3.8 3.3zm98.5-9c-1.1-3.6-2.8-7-4.9-10.1l4.1-2.8c2.4 3.5 4.3 7.4 5.5 11.4l-4.7 1.5zm-114.4-9l-4.5-5.1c-1.2-1.4-2.4-2.8-3.4-4.4l4.1-2.8c.9 1.3 1.9 2.7 3 3.9l4.5 5.1-3.7 3.3zm102-10.1l-7.9-9 3.8-3.3 7.9 9-3.8 3.3zm-115.4-10.7c-1.3-4-2-8.2-2.1-12.5l5-.1c.1 3.8.7 7.5 1.8 11.1l-4.7 1.5zm99.6-7.3l-7.9-9 3.7-3.3 7.9 9-3.7 3.3zm-95.3-16.5l-4.8-1.3c1.1-4.1 2.8-8 5.1-11.6l4.2 2.6c-2 3.2-3.5 6.7-4.5 10.3zm79.4-1.5l-7.9-9 3.8-3.3 7.9 9-3.8 3.3zm-67.5-17.4l-3.4-3.6.1-.1c3.2-2.8 6.8-5.1 10.6-6.9l2.1 4.5c-3.4 1.5-6.6 3.5-9.4 6.1zm51.6-.1c-2.8-2.5-6-4.5-9.4-6.1l2.1-4.5c3.9 1.8 7.4 4.1 10.6 6.9l-3.3 3.7zm-31.5-9.3l-.7-4.9c4.2-.6 8.5-.6 12.7 0l-.7 4.9c-3.7-.6-7.5-.6-11.3 0zM205.7 109.5l-.3-5c3.7-.2 7.3-1.1 10.7-2.6l2.1 4.6c-3.9 1.7-8.1 2.8-12.5 3zM193 108c-4.1-1.3-8-3.3-11.4-6l3.1-3.9c2.9 2.3 6.2 4 9.8 5.1L193 108zm35.7-8.7l-3.3-3.8 9-7.9 3.3 3.8-9 7.9zm-55.6-6.9c-2.2-3.7-3.8-7.7-4.5-12l4.9-.9c.7 3.7 2 7.1 3.9 10.3l-4.3 2.6zm73.6-9l-3.3-3.8 9-7.9 3.3 3.8-9 7.9zm-73.1-15l-4.9-.9c.8-4.3 2.3-8.3 4.6-12l4.3 2.6c-2 3.2-3.3 6.7-4 10.3zm91.1-.9l-3.3-3.8 6.1-5.4c.9-.8 1.8-1.7 2.6-2.5l3.7 3.3c-.9 1-1.9 2-3 2.9l-6.1 5.5zM185 49.8l-3.3-3.8 9-7.9 3.3 3.8-9 7.9zm95.4-1.5l-4.7-1.8c1.3-3.5 2-7.1 2-10.8h5c.1 4.3-.7 8.5-2.3 12.6zM203 33.9l-3.3-3.8 9-7.9L212 26l-9 7.9zm72.9-9.1c-1.3-3.5-3.2-6.6-5.7-9.4l3.8-3.3c2.9 3.3 5.1 7 6.6 11l-4.7 1.7zM221 18l-3.3-3.8 6.1-5.4c1-.9 2.1-1.8 3.3-2.6l2.9 4.1c-1 .7-1.9 1.4-2.8 2.2L221 18zm49.1-2.7c-2.5-2.8-5.4-5.1-8.7-6.8l2.3-4.4c3.8 2 7.2 4.7 10.1 7.9l-3.7 3.3zm-30.2-9.4L238.7 1c2.8-.7 5.7-1 8.5-1 1.4 0 2.9.1 4.3.3l-.6 5c-1.2-.1-2.5-.2-3.7-.2-2.4-.1-4.9.2-7.3.8z"/><circle fill="#E6E7E8" cx="65.3" cy="79.4" r="45"/><g fill="#C63136"><path d="M124.214 149.845l-3.68-3.385 8.124-8.832 3.68 3.385zM144.91 119.97l3.68 3.384-8.125 8.832-3.68-3.385zM108.028 167.516l-3.68-3.385 8.124-8.83 3.68 3.384zM147.8 107.3l12.7 11.9 2.5-15.4zM130.148 203.925l-12-.086.035-5 12 .085zM139.9 192.6l-.3 17.3 9.2-5.9h.1l3.8-2.5zM92.8 184l7.1-7.7-3.7-3.4-7.3 7.9c-2.9-1.9-6.3-3.1-10-3.4-5-12.5-17.3-21.4-31.6-21.4-18 0-32.7 13.9-33.9 31.6-7.7 2-13.4 9-13.4 17.4 0 2.7.6 5.3 1.7 7.7h91.7c2.2-2.6 3.8-5.7 4.7-9.1l8.1.1v-5l-7.5-.1c-.1-5.6-2.3-10.7-5.9-14.6z"/></g></svg>