<svg xmlns="http://www.w3.org/2000/svg" viewBox="0 0 455 309.9" enable-background="new 0 0 455 309.9"><path fill="#C63136" d="M233.5 114.5l5.7 5 2.7-20.1-18.6 6.2 6.5 5.6L130 228.5c-9.8-15-26.8-24.9-46-24.9-28 0-51.2 21-54.6 48.1-14.4 2.7-25.3 15.4-25.3 30.7 0 6.9 2.2 13.3 6 18.5H162c7.1-7.5 11.5-17.6 11.5-28.7 0-19.4-13.3-35.7-31.3-40.2l63.5-7.5.9 8.1 15.5-13.1-18-8 .9 8-67.7 8 96.2-113z"/><circle fill="#30323F" cx="83.1" cy="83.1" r="83.1"/><circle fill="#73C4B0" cx="422.1" cy="139.3" r="16.3"/><circle fill="#30323F" cx="399.8" cy="107.4" r="16.3"/><circle fill="#30323F" cx="383.5" cy="143" r="16.3"/><circle fill="#73C4B0" cx="322.8" cy="272.5" r="16.3"/><circle fill="#30323F" cx="305.2" cy="233.3" r="16.3"/><circle fill="#30323F" cx="313.2" cy="36.9" r="16.3"/><circle fill="#30323F" cx="265.7" cy="213.9" r="16.3"/><circle fill="#30323F" cx="323" cy="116.2" r="16.3"/><circle fill="#30323F" cx="281.4" cy="139.7" r="16.3"/><circle fill="#30323F" cx="340.1" cy="178.6" r="16.3"/><circle fill="#30323F" cx="389.9" cy="214.8" r="16.3"/><circle fill="#30323F" cx="380.5" cy="49.4" r="16.3"/><circle fill="#30323F" cx="274.9" cy="71.2" r="16.3"/><path fill="#30323F" d="M402.1 183.2c-4.3 0-8.6-.5-12.7-1.5l1.2-4.9c3.8.9 7.6 1.4 11.5 1.4h.2v5h-.2zm13-1.6l-1.2-4.9c3.8-.9 7.4-2.3 10.8-4.2l2.3 4.4c-3.7 2.1-7.8 3.6-11.9 4.7zm-37.7-4.5c-3.8-2-7.3-4.4-10.5-7.3l3.3-3.7c2.9 2.6 6.1 4.8 9.6 6.6l-2.4 4.4zm60.2-7.4l-3.3-3.7c2.9-2.6 5.5-5.5 7.7-8.7l4.1 2.8c-2.5 3.5-5.3 6.7-8.5 9.6zm-79.2-9.5c-2.4-3.5-4.5-7.3-6-11.3l4.7-1.8c1.4 3.6 3.2 7.1 5.4 10.3l-4.1 2.8zm93.6-11.5l-4.7-1.8c1.4-3.6 2.3-7.4 2.7-11.3l5 .6c-.5 4.3-1.5 8.5-3 12.5zm-102.7-12.3c-.3-2.1-.4-4.3-.4-6.5 0-2.1.1-4.3.4-6.3l5 .6c-.2 1.9-.3 3.8-.3 5.8s.1 3.9.4 5.9l-5.1.5zM450 124c-.5-3.9-1.4-7.6-2.8-11.3l4.7-1.8c1.5 4 2.6 8.2 3.1 12.4l-5 .7zm-93-11.1l-4.7-1.8c1.5-4 3.5-7.8 6-11.4l4.1 2.8c-2.2 3.3-4 6.8-5.4 10.4zm84.8-10.4c-2.2-3.2-4.8-6.1-7.7-8.7l3.3-3.7c3.2 2.8 6.1 6.1 8.5 9.6l-4.1 2.8zm-71.7-8.6l-3.3-3.7c3.2-2.8 6.7-5.3 10.5-7.3l2.3 4.4c-3.4 1.8-6.6 4-9.5 6.6zm54.4-6.7c-3.4-1.8-7.1-3.2-10.9-4.1l1.2-4.9c4.2 1 8.2 2.5 12 4.5l-2.3 4.5zm-34-4l-1.2-4.9c4.1-1 8.4-1.5 12.7-1.6v5c-3.9.1-7.7.5-11.5 1.5zM315.3 309.9c-4.2-.6-8.3-1.8-12.2-3.6l2.1-4.5c3.4 1.6 7 2.6 10.8 3.1l-.7 5zm12.7-.1l-.7-4.9c3.7-.6 7.4-1.6 10.8-3.2l2.1 4.5c-3.9 1.8-8 3-12.2 3.6zm-35.5-10.4c-1.4-1.3-2.8-2.6-4.1-4.1l-4.3-4.9 3.8-3.3 4.3 4.9c1.1 1.3 2.3 2.5 3.6 3.6l-3.3 3.8zm58.2-.2l-3.3-3.7c2.8-2.5 5.3-5.4 7.3-8.6l4.2 2.6c-2.2 3.6-5 6.9-8.2 9.7zm-74.6-17.8l-7.9-9 3.8-3.3 7.9 9-3.8 3.3zm87.9-3.5l-4.8-1.3c.9-3.4 1.4-6.9 1.4-10.4v-.7l5-.1v.8c0 3.9-.5 7.9-1.6 11.7zm-103.7-14.5l-7.9-9 3.8-3.3 7.9 9-3.8 3.3zm98.5-9c-1.1-3.6-2.8-7-4.9-10.1l4.1-2.8c2.4 3.5 4.3 7.4 5.5 11.4l-4.7 1.5zm-114.4-9l-4.5-5.1c-1.2-1.4-2.4-2.8-3.4-4.4l4.1-2.8c.9 1.3 1.9 2.7 3 3.9l4.5 5.1-3.7 3.3zm102-10.1l-7.9-9 3.8-3.3 7.9 9-3.8 3.3zm-115.5-10.7c-1.3-4-2-8.2-2.1-12.5l5-.1c.1 3.8.7 7.5 1.8 11.1l-4.7 1.5zm99.6-7.3l-7.9-9 3.8-3.3 7.9 9-3.8 3.3zm-95.2-16.5l-4.8-1.3c1.1-4.1 2.8-8 5.1-11.6l4.2 2.6c-2 3.2-3.5 6.7-4.5 10.3zm79.3-1.5l-7.9-9 3.8-3.3 7.9 9-3.8 3.3zm-67.5-17.4l-3.4-3.6.1-.1c3.2-2.8 6.8-5.1 10.6-6.9l2.1 4.5c-3.4 1.5-6.5 3.5-9.4 6.1zm51.6-.1c-2.8-2.5-6-4.5-9.4-6.1l2.1-4.5c3.9 1.8 7.4 4.1 10.6 6.9l-3.3 3.7zm-31.4-9.3l-.7-4.9c4.2-.6 8.5-.6 12.7 0l-.7 4.9c-3.8-.6-7.6-.6-11.3 0zM274.3 109.5l-.3-5c3.7-.2 7.3-1.1 10.7-2.6l2.1 4.6c-4 1.7-8.2 2.8-12.5 3zm-12.8-1.5c-4.1-1.3-8-3.3-11.4-6l3.1-3.9c2.9 2.3 6.2 4 9.8 5.1l-1.5 4.8zm35.7-8.7l-3.3-3.8 9-7.9 3.3 3.8-9 7.9zm-55.5-6.9c-2.2-3.7-3.8-7.7-4.5-12l4.9-.9c.7 3.7 2 7.1 3.9 10.3l-4.3 2.6zm73.5-9l-3.3-3.8 9-7.9 3.3 3.8-9 7.9zm-73.1-15l-4.9-.9c.8-4.3 2.3-8.3 4.6-12l4.3 2.6c-2 3.2-3.3 6.7-4 10.3zm91.1-.9l-3.3-3.7 6.1-5.4c.9-.8 1.8-1.7 2.6-2.5l3.7 3.3c-.9 1-1.9 2-3 2.9l-6.1 5.4zm-79.7-17.7l-3.3-3.8 9-7.9 3.3 3.8-9 7.9zm95.5-1.5l-4.7-1.8c1.3-3.5 2-7.1 2-10.8h5c0 4.3-.8 8.5-2.3 12.6zm-77.5-14.4l-3.3-3.8 9-7.9 3.3 3.8-9 7.9zm72.9-9.1c-1.3-3.5-3.2-6.6-5.7-9.4l3.8-3.3c2.9 3.3 5.1 7 6.6 11l-4.7 1.7zM289.5 18l-3.3-3.8 6.1-5.4c1-.9 2.1-1.8 3.3-2.6l2.9 4.1c-1 .7-1.9 1.4-2.8 2.2l-6.2 5.5zm49.2-2.7c-2.5-2.8-5.4-5.1-8.7-6.8l2.3-4.4c3.8 2 7.2 4.7 10.1 7.9l-3.7 3.3zm-30.3-9.4L307.3 1c2.8-.7 5.7-1 8.5-1 1.4 0 2.9.1 4.3.3l-.6 5c-1.3-.2-2.5-.3-3.7-.3-2.5 0-5 .3-7.4.9z"/><path fill="#fff" d="M31.4 75.9L29 71.4H27.2V76H24V62.1c.6-.1 1.2-.1 1.9-.2.7 0 1.4-.1 2.2-.1 1.1 0 2 .1 2.8.4.8.2 1.4.6 1.9 1s.8.9 1.1 1.5c.2.6.3 1.2.3 1.8 0 .8-.2 1.6-.6 2.3-.4.7-1 1.3-1.8 1.7l3.3 5.4h-3.7zm-.6-9.3c0-.6-.2-1-.6-1.4-.4-.3-1-.5-1.7-.5h-.6c-.2 0-.4 0-.6.1v3.8h1c.8 0 1.4-.2 1.8-.5.5-.2.7-.8.7-1.5zM39.1 75.9V62h8.8v3h-5.6v2.5h5.1v2.8h-5.1V73h5.6v2.9h-8.8zM61.8 71.8c0 .6-.1 1.1-.3 1.6-.2.5-.5 1-.9 1.4-.4.4-.9.7-1.5 1-.6.2-1.3.4-2.2.4-.4 0-.8 0-1.2-.1-.4-.1-.8-.2-1.3-.3-.4-.1-.8-.3-1.2-.4-.4-.2-.7-.4-1-.6l.9-2.9c.6.4 1.2.7 1.9 1 .7.2 1.4.4 2 .4.6 0 1-.1 1.2-.4.2-.2.4-.5.4-.9 0-.2 0-.3-.1-.5s-.2-.3-.4-.5-.4-.3-.8-.5c-.3-.2-.8-.4-1.3-.6-.6-.3-1.1-.5-1.5-.8-.4-.3-.8-.6-1-1-.3-.3-.4-.7-.6-1.1-.1-.4-.2-.8-.2-1.2 0-.5.1-1 .3-1.5.2-.5.5-.9.9-1.3s.9-.7 1.5-.9c.6-.2 1.3-.3 2.1-.3.4 0 .8 0 1.1.1.4.1.7.1 1.1.2.3.1.7.2.9.3.3.1.5.3.7.4l-.8 2.9c-.2-.1-.4-.3-.7-.4-.3-.1-.5-.3-.8-.4-.3-.1-.5-.2-.8-.3-.3-.1-.5-.1-.8-.1-.6 0-1 .1-1.3.3-.3.2-.4.5-.4.8 0 .2 0 .4.1.6.1.2.2.3.4.5.2.1.5.3.8.4.3.1.7.3 1.1.5.6.3 1.2.6 1.6.9.4.3.8.6 1 1 .3.3.4.7.6 1.1.4.4.5.8.5 1.2zM80.2 69c0 1-.2 2-.5 2.9-.3.9-.8 1.6-1.5 2.3-.6.6-1.4 1.1-2.3 1.5-.9.4-1.9.6-2.9.6-1.1 0-2.1-.2-2.9-.6-.9-.4-1.6-.9-2.2-1.5-.6-.6-1.1-1.4-1.4-2.3-.3-.9-.5-1.8-.5-2.9s.2-2 .5-2.9c.3-.9.8-1.6 1.5-2.3.6-.6 1.4-1.1 2.3-1.5.9-.4 1.9-.6 2.9-.6 1.1 0 2 .2 2.9.6s1.6.9 2.2 1.5c.6.6 1.1 1.4 1.4 2.3.3.9.5 1.8.5 2.9zm-3.5 0c0-.6-.1-1.2-.3-1.7-.2-.5-.4-1-.8-1.4-.3-.4-.7-.7-1.2-.9-.5-.2-1-.3-1.5-.3s-1 .1-1.5.3c-.5.2-.8.5-1.2.9-.3.4-.6.8-.8 1.4-.2.5-.3 1.1-.3 1.7 0 .6.1 1.2.3 1.7.2.5.4 1 .8 1.4.3.4.7.7 1.2.9.5.2 1 .3 1.5.3.6 0 1.1-.1 1.5-.3.4-.2.8-.5 1.2-.9.3-.4.6-.8.8-1.4.3-.5.3-1.1.3-1.7zM96.8 70.3c0 1.9-.5 3.4-1.6 4.4s-2.5 1.5-4.4 1.5c-1.9 0-3.3-.5-4.3-1.5S85 72.2 85 70.3V62h3.2v8c0 1 .2 1.8.6 2.3.4.6 1.1.8 2 .8.9 0 1.6-.3 2-.8.4-.6.6-1.3.6-2.3v-8h3.2v8.3zM109.4 75.9l-2.4-4.5H105.2V76H102V62.1c.6-.1 1.2-.1 1.9-.2.7 0 1.4-.1 2.2-.1 1.1 0 2 .1 2.8.4.8.2 1.4.6 1.9 1s.8.9 1.1 1.5c.2.6.3 1.2.3 1.8 0 .8-.2 1.6-.6 2.3-.4.7-1 1.3-1.8 1.7l3.3 5.4h-3.7zm-.6-9.3c0-.6-.2-1-.6-1.4-.4-.3-1-.5-1.7-.5h-.6c-.2 0-.4 0-.6.1v3.8h1c.8 0 1.4-.2 1.8-.5.5-.2.7-.8.7-1.5zM128.8 74.9c-.6.4-1.3.7-2.1 1-.8.2-1.6.3-2.4.3-1.1 0-2.2-.2-3.1-.5-.9-.4-1.7-.9-2.4-1.5s-1.2-1.4-1.6-2.3c-.4-.9-.6-1.8-.6-2.9 0-1 .2-2 .6-2.9s.9-1.6 1.6-2.3c.7-.6 1.5-1.1 2.4-1.5.9-.4 2-.5 3.1-.5.8 0 1.6.1 2.3.3.7.2 1.4.5 2 .9l-1 2.7c-.5-.3-1.1-.5-1.6-.7-.6-.2-1.1-.2-1.7-.2-.6 0-1.2.1-1.8.3-.5.2-1 .5-1.3.8-.4.4-.6.8-.8 1.3-.2.5-.3 1.1-.3 1.7 0 .6.1 1.2.3 1.7.2.5.5 1 .8 1.3.4.4.8.6 1.3.8.5.2 1.1.3 1.8.3.6 0 1.2-.1 1.8-.3.6-.2 1.2-.4 1.7-.8l1 3zM133.3 75.9V62h8.8v3h-5.6v2.5h5.1v2.8h-5.1V73h5.6v2.9h-8.8zM39.4 102.5c-.8.6-1.8 1-2.9 1.3-1.1.3-2.2.5-3.3.5-1.6 0-3-.2-4.3-.7-1.3-.5-2.4-1.2-3.3-2.1-.9-.9-1.6-1.9-2.1-3.1-.5-1.2-.8-2.5-.8-3.9s.2-2.7.8-3.9 1.2-2.2 2.1-3.1c.9-.9 2-1.6 3.3-2.1 1.3-.5 2.7-.7 4.3-.7 1.1 0 2.2.2 3.2.5s1.9.7 2.8 1.2L37.8 90c-.7-.4-1.5-.7-2.2-.9-.8-.2-1.5-.3-2.3-.3-.9 0-1.7.1-2.4.4-.7.3-1.3.6-1.8 1.1-.5.5-.9 1.1-1.1 1.8-.3.7-.4 1.5-.4 2.4 0 .9.1 1.7.4 2.4.3.7.7 1.3 1.1 1.8.5.5 1.1.9 1.8 1.1s1.5.4 2.4.4c.8 0 1.6-.1 2.4-.4.8-.2 1.6-.6 2.3-1l1.4 3.7zM45.5 104V84.9h12.1V89H50v3.4h7v3.9h-7v3.7h7.6v4H45.5zM80.7 104.3L69.2 94v10h-4.4V84.6l.6-.1 11.3 10.3v-9.9h4.4v19.4h-.4zM97.3 89v15h-4.4V89h-5.7v-4.1H103V89h-5.7zM109 104V84.9h12V89h-7.6v3.4h7v3.9h-7v3.7h7.6v4h-12zM138.3 104l-3.3-6.2H132.6v6.2h-4.4V85.1c.8-.1 1.7-.2 2.6-.2.9-.1 1.9-.1 3-.1 1.5 0 2.8.2 3.8.5s1.9.8 2.6 1.4c.7.6 1.2 1.2 1.5 2 .3.8.5 1.6.5 2.5 0 1.1-.3 2.2-.9 3.2-.6 1-1.4 1.7-2.4 2.4l4.5 7.4h-5.1zm-.8-12.8c0-.8-.3-1.4-.9-1.9-.6-.4-1.3-.7-2.3-.7h-.9c-.2 0-.5.1-.8.1V94c.3 0 .5.1.7.1h.7c1.1 0 1.9-.2 2.5-.7.7-.4 1-1.2 1-2.2zM52.2 257.7l-.7-1.6h-3l-.7 1.6h-2.1l4.1-8.9h.3l4.1 8.9h-2zm-2.2-5.2l-.9 2.1h1.7l-.8-2.1zM63 252c0 .5-.1.9-.2 1.3s-.4.7-.7 1c-.3.3-.7.5-1.1.6s-1 .2-1.5.2h-.8v2.6h-2V249c.9-.1 1.7-.1 2.4-.1.6 0 1.2.1 1.7.2.5.2.9.4 1.2.7.3.3.6.6.8 1s.2.8.2 1.2zm-2.1 0c0-.4-.1-.7-.4-.9s-.6-.4-1.1-.4h-.8v2.5h.6c.5 0 .9-.1 1.2-.3.4-.1.5-.4.5-.9zM74.6 253.3c0 .6-.1 1.2-.3 1.8s-.5 1-.9 1.4c-.4.4-.9.7-1.4 1-.6.2-1.2.3-1.9.3s-1.3-.1-1.8-.3c-.6-.2-1-.5-1.4-1-.4-.4-.7-.9-.9-1.4s-.3-1.2-.3-1.8c0-.6.1-1.2.3-1.8.2-.6.5-1 .9-1.4.4-.4.9-.7 1.4-1 .6-.2 1.2-.3 1.9-.3s1.3.1 1.8.3c.5.2 1 .5 1.4 1 .4.4.7.9.9 1.4.2.6.3 1.2.3 1.8zm-2.2 0c0-.4-.1-.8-.2-1.1-.1-.3-.3-.6-.5-.9-.2-.2-.4-.4-.7-.6-.3-.1-.6-.2-1-.2-.3 0-.7.1-.9.2-.3.1-.5.3-.7.6-.2.2-.4.5-.5.9s-.2.7-.2 1.1c0 .4.1.8.2 1.1s.3.6.5.9c.2.2.5.4.7.6s.6.2.9.2c.4 0 .7-.1 1-.2.3-.1.5-.3.7-.6.2-.2.4-.5.5-.9.1-.3.2-.7.2-1.1zM83.1 255.1c0 .4-.1.7-.2 1-.1.3-.3.6-.6.9-.3.3-.6.5-1 .6-.4.2-.9.2-1.4.2-.2 0-.5 0-.8-.1-.3 0-.5-.1-.8-.2-.3-.1-.5-.2-.8-.3-.2-.1-.5-.2-.6-.4l.6-1.8c.4.3.8.5 1.2.6.4.2.9.2 1.3.2s.6-.1.8-.2c.2-.1.2-.3.2-.5 0-.1 0-.2-.1-.3 0-.1-.1-.2-.2-.3-.1-.1-.3-.2-.5-.3s-.5-.2-.8-.4c-.4-.2-.7-.3-1-.5-.3-.2-.5-.4-.6-.6s-.3-.4-.4-.7c-.1-.2-.1-.5-.1-.8 0-.3.1-.6.2-.9.1-.3.3-.6.6-.8.3-.2.6-.4 1-.6.4-.1.8-.2 1.3-.2.2 0 .5 0 .7.1.2 0 .5.1.7.2.2.1.4.1.6.2.2.1.3.2.5.3l-.5 1.8c-.1-.1-.3-.2-.4-.3s-.3-.2-.5-.2c-.2-.1-.3-.1-.5-.2s-.3-.1-.5-.1c-.4 0-.6.1-.8.2-.2.1-.2.3-.2.5 0 .1 0 .3.1.4.1.1.1.2.3.3s.3.2.5.3c.2.1.4.2.7.3l1 .5c.3.2.5.4.7.6s.3.4.3.7v.8zM90.1 250.8v6.9h-2v-6.9h-2.6v-1.9h7.3v1.9h-2.7zM104.2 253.3c0 .6-.1 1.2-.3 1.8s-.5 1-.9 1.4c-.4.4-.9.7-1.4 1-.6.2-1.2.3-1.9.3s-1.3-.1-1.8-.3c-.6-.2-1-.5-1.4-1-.4-.4-.7-.9-.9-1.4s-.3-1.2-.3-1.8c0-.6.1-1.2.3-1.8.2-.6.5-1 .9-1.4.4-.4.9-.7 1.4-1 .6-.2 1.2-.3 1.9-.3s1.3.1 1.8.3c.5.2 1 .5 1.4 1 .4.4.7.9.9 1.4.2.6.3 1.2.3 1.8zm-2.2 0c0-.4-.1-.8-.2-1.1-.1-.3-.3-.6-.5-.9-.2-.2-.4-.4-.7-.6-.3-.1-.6-.2-1-.2-.3 0-.7.1-.9.2-.3.1-.5.3-.7.6-.2.2-.4.5-.5.9s-.2.7-.2 1.1c0 .4.1.8.2 1.1s.3.6.5.9c.2.2.5.4.7.6s.6.2.9.2c.4 0 .7-.1 1-.2.3-.1.5-.3.7-.6.2-.2.4-.5.5-.9.2-.3.2-.7.2-1.1zM107.3 257.7v-8.8h2v6.9h3.5v1.9h-5.5zM115.6 257.7v-8.8h2v8.8h-2zM128.5 257.1c-.4.3-.8.5-1.3.6-.5.1-1 .2-1.5.2-.7 0-1.4-.1-2-.3-.6-.2-1.1-.5-1.5-.9-.4-.4-.8-.9-1-1.4s-.3-1.2-.3-1.8c0-.7.1-1.3.3-1.8s.6-1 1-1.4c.4-.4.9-.7 1.5-.9.6-.2 1.2-.3 2-.3.5 0 1 .1 1.5.2s.9.3 1.3.6l-.6 1.7c-.3-.2-.7-.3-1-.4-.4-.1-.7-.2-1.1-.2-.4 0-.8.1-1.1.2-.3.1-.6.3-.8.5-.2.2-.4.5-.5.8s-.2.7-.2 1.1c0 .4.1.8.2 1.1s.3.6.5.8c.2.2.5.4.8.5.3.1.7.2 1.1.2.4 0 .7-.1 1.1-.2.4-.1.7-.3 1.1-.5l.5 1.6zM56.1 267.5v15h-4.4v-15H46v-4.1h15.9v4.1h-5.8zM67.8 282.5v-19.1h12.1v4.1h-7.7v3.4h7v3.9h-7v3.7h7.7v4H67.8zM98.7 282.5l-1.4-3.5h-6.6l-1.4 3.5h-4.5l9-19.3h.6l9 19.3h-4.7zM94 271.1l-1.9 4.6h3.8l-1.9-4.6zM124 282.5l-.2-9.4-5.3 6.7h-.5l-5.3-6.7-.2 9.4h-4.3l.9-19.2.6-.1 8.7 10.9 8.4-10.9.6.1.9 19.2H124z"/></svg>